<svg class="rich-terminal" viewBox="0 0 1970 1026.0" xmlns="http://www.w3.org/2000/svg">
    <!-- Generated with Rich https://www.textualize.io -->
    <style>

    @font-face {
        font-family: "Fira Code";
        src: local("FiraCode-Regular"),
                url("https://cdnjs.cloudflare.com/ajax/libs/firacode/6.2.0/woff2/FiraCode-Regular.woff2") format("woff2"),
                url("https://cdnjs.cloudflare.com/ajax/libs/firacode/6.2.0/woff/FiraCode-Regular.woff") format("woff");
        font-style: normal;
        font-weight: 400;
    }
    @font-face {
        font-family: "Fira Code";
        src: local("FiraCode-Bold"),
                url("https://cdnjs.cloudflare.com/ajax/libs/firacode/6.2.0/woff2/FiraCode-Bold.woff2") format("woff2"),
                url("https://cdnjs.cloudflare.com/ajax/libs/firacode/6.2.0/woff/FiraCode-Bold.woff") format("woff");
        font-style: bold;
        font-weight: 700;
    }

    .terminal-4189979937-matrix {
        font-family: Fira Code, monospace;
        font-size: 20px;
        line-height: 24.4px;
        font-variant-east-asian: full-width;
    }

    .terminal-4189979937-title {
        font-size: 18px;
        font-weight: bold;
        font-family: arial;
    }

    .terminal-4189979937-r1 { fill: #1e1e1e }
.terminal-4189979937-r2 { fill: #c5c8c6 }
.terminal-4189979937-r3 { fill: #9d65ff;font-weight: bold }
.terminal-4189979937-r4 { fill: #e0e0e0 }
.terminal-4189979937-r5 { fill: #98e024;font-weight: bold }
.terminal-4189979937-r6 { fill: #a1a1a1 }
.terminal-4189979937-r7 { fill: #121212 }
.terminal-4189979937-r8 { fill: #191919 }
.terminal-4189979937-r9 { fill: #737373 }
    </style>

    <defs>
    <clipPath id="terminal-4189979937-clip-terminal">
      <rect x="0" y="0" width="1951.0" height="975.0" />
    </clipPath>
    <clipPath id="terminal-4189979937-line-0">
    <rect x="0" y="1.5" width="1952" height="24.65"/>
            </clipPath>
<clipPath id="terminal-4189979937-line-1">
    <rect x="0" y="25.9" width="1952" height="24.65"/>
            </clipPath>
<clipPath id="terminal-4189979937-line-2">
    <rect x="0" y="50.3" width="1952" height="24.65"/>
            </clipPath>
<clipPath id="terminal-4189979937-line-3">
    <rect x="0" y="74.7" width="1952" height="24.65"/>
            </clipPath>
<clipPath id="terminal-4189979937-line-4">
    <rect x="0" y="99.1" width="1952" height="24.65"/>
            </clipPath>
<clipPath id="terminal-4189979937-line-5">
    <rect x="0" y="123.5" width="1952" height="24.65"/>
            </clipPath>
<clipPath id="terminal-4189979937-line-6">
    <rect x="0" y="147.9" width="1952" height="24.65"/>
            </clipPath>
<clipPath id="terminal-4189979937-line-7">
    <rect x="0" y="172.3" width="1952" height="24.65"/>
            </clipPath>
<clipPath id="terminal-4189979937-line-8">
    <rect x="0" y="196.7" width="1952" height="24.65"/>
            </clipPath>
<clipPath id="terminal-4189979937-line-9">
    <rect x="0" y="221.1" width="1952" height="24.65"/>
            </clipPath>
<clipPath id="terminal-4189979937-line-10">
    <rect x="0" y="245.5" width="1952" height="24.65"/>
            </clipPath>
<clipPath id="terminal-4189979937-line-11">
    <rect x="0" y="269.9" width="1952" height="24.65"/>
            </clipPath>
<clipPath id="terminal-4189979937-line-12">
    <rect x="0" y="294.3" width="1952" height="24.65"/>
            </clipPath>
<clipPath id="terminal-4189979937-line-13">
    <rect x="0" y="318.7" width="1952" height="24.65"/>
            </clipPath>
<clipPath id="terminal-4189979937-line-14">
    <rect x="0" y="343.1" width="1952" height="24.65"/>
            </clipPath>
<clipPath id="terminal-4189979937-line-15">
    <rect x="0" y="367.5" width="1952" height="24.65"/>
            </clipPath>
<clipPath id="terminal-4189979937-line-16">
    <rect x="0" y="391.9" width="1952" height="24.65"/>
            </clipPath>
<clipPath id="terminal-4189979937-line-17">
    <rect x="0" y="416.3" width="1952" height="24.65"/>
            </clipPath>
<clipPath id="terminal-4189979937-line-18">
    <rect x="0" y="440.7" width="1952" height="24.65"/>
            </clipPath>
<clipPath id="terminal-4189979937-line-19">
    <rect x="0" y="465.1" width="1952" height="24.65"/>
            </clipPath>
<clipPath id="terminal-4189979937-line-20">
    <rect x="0" y="489.5" width="1952" height="24.65"/>
            </clipPath>
<clipPath id="terminal-4189979937-line-21">
    <rect x="0" y="513.9" width="1952" height="24.65"/>
            </clipPath>
<clipPath id="terminal-4189979937-line-22">
    <rect x="0" y="538.3" width="1952" height="24.65"/>
            </clipPath>
<clipPath id="terminal-4189979937-line-23">
    <rect x="0" y="562.7" width="1952" height="24.65"/>
            </clipPath>
<clipPath id="terminal-4189979937-line-24">
    <rect x="0" y="587.1" width="1952" height="24.65"/>
            </clipPath>
<clipPath id="terminal-4189979937-line-25">
    <rect x="0" y="611.5" width="1952" height="24.65"/>
            </clipPath>
<clipPath id="terminal-4189979937-line-26">
    <rect x="0" y="635.9" width="1952" height="24.65"/>
            </clipPath>
<clipPath id="terminal-4189979937-line-27">
    <rect x="0" y="660.3" width="1952" height="24.65"/>
            </clipPath>
<clipPath id="terminal-4189979937-line-28">
    <rect x="0" y="684.7" width="1952" height="24.65"/>
            </clipPath>
<clipPath id="terminal-4189979937-line-29">
    <rect x="0" y="709.1" width="1952" height="24.65"/>
            </clipPath>
<clipPath id="terminal-4189979937-line-30">
    <rect x="0" y="733.5" width="1952" height="24.65"/>
            </clipPath>
<clipPath id="terminal-4189979937-line-31">
    <rect x="0" y="757.9" width="1952" height="24.65"/>
            </clipPath>
<clipPath id="terminal-4189979937-line-32">
    <rect x="0" y="782.3" width="1952" height="24.65"/>
            </clipPath>
<clipPath id="terminal-4189979937-line-33">
    <rect x="0" y="806.7" width="1952" height="24.65"/>
            </clipPath>
<clipPath id="terminal-4189979937-line-34">
    <rect x="0" y="831.1" width="1952" height="24.65"/>
            </clipPath>
<clipPath id="terminal-4189979937-line-35">
    <rect x="0" y="855.5" width="1952" height="24.65"/>
            </clipPath>
<clipPath id="terminal-4189979937-line-36">
    <rect x="0" y="879.9" width="1952" height="24.65"/>
            </clipPath>
<clipPath id="terminal-4189979937-line-37">
    <rect x="0" y="904.3" width="1952" height="24.65"/>
            </clipPath>
<clipPath id="terminal-4189979937-line-38">
    <rect x="0" y="928.7" width="1952" height="24.65"/>
            </clipPath>
    </defs>

    <rect fill="#292929" stroke="rgba(255,255,255,0.35)" stroke-width="1" x="1" y="1" width="1968" height="1024" rx="8"/><text class="terminal-4189979937-title" fill="#c5c8c6" text-anchor="middle" x="984" y="27">_App</text>
            <g transform="translate(26,22)">
            <circle cx="0" cy="0" r="7" fill="#ff5f57"/>
            <circle cx="22" cy="0" r="7" fill="#febc2e"/>
            <circle cx="44" cy="0" r="7" fill="#28c840"/>
            </g>
        
    <g transform="translate(9, 41)" clip-path="url(#terminal-4189979937-clip-terminal)">
    <rect fill="#272727" x="0" y="1.5" width="12.2" height="24.65" shape-rendering="crispEdges"/><rect fill="#272727" x="12.2" y="1.5" width="1927.6" height="24.65" shape-rendering="crispEdges"/><rect fill="#272727" x="1939.8" y="1.5" width="12.2" height="24.65" shape-rendering="crispEdges"/><rect fill="#272727" x="0" y="25.9" width="12.2" height="24.65" shape-rendering="crispEdges"/><rect fill="#272727" x="12.2" y="25.9" width="48.8" height="24.65" shape-rendering="crispEdges"/><rect fill="#272727" x="61" y="25.9" width="353.8" height="24.65" shape-rendering="crispEdges"/><rect fill="#272727" x="414.8" y="25.9" width="1500.6" height="24.65" shape-rendering="crispEdges"/><rect fill="#000000" x="1915.4" y="25.9" width="24.4" height="24.65" shape-rendering="crispEdges"/><rect fill="#272727" x="1939.8" y="25.9" width="12.2" height="24.65" shape-rendering="crispEdges"/><rect fill="#272727" x="0" y="50.3" width="12.2" height="24.65" shape-rendering="crispEdges"/><rect fill="#272727" x="12.2" y="50.3" width="73.2" height="24.65" shape-rendering="crispEdges"/><rect fill="#272727" x="85.4" y="50.3" width="890.6" height="24.65" shape-rendering="crispEdges"/><rect fill="#272727" x="976" y="50.3" width="939.4" height="24.65" shape-rendering="crispEdges"/><rect fill="#000000" x="1915.4" y="50.3" width="24.4" height="24.65" shape-rendering="crispEdges"/><rect fill="#272727" x="1939.8" y="50.3" width="12.2" height="24.65" shape-rendering="crispEdges"/><rect fill="#272727" x="0" y="74.7" width="12.2" height="24.65" shape-rendering="crispEdges"/><rect fill="#272727" x="12.2" y="74.7" width="146.4" height="24.65" shape-rendering="crispEdges"/><rect fill="#272727" x="158.6" y="74.7" width="1756.8" height="24.65" shape-rendering="crispEdges"/><rect fill="#000000" x="1915.4" y="74.7" width="24.4" height="24.65" shape-rendering="crispEdges"/><rect fill="#272727" x="1939.8" y="74.7" width="12.2" height="24.65" shape-rendering="crispEdges"/><rect fill="#272727" x="0" y="99.1" width="12.2" height="24.65" shape-rendering="crispEdges"/><rect fill="#272727" x="12.2" y="99.1" width="219.6" height="24.65" shape-rendering="crispEdges"/><rect fill="#272727" x="231.8" y="99.1" width="1683.6" height="24.65" shape-rendering="crispEdges"/><rect fill="#000000" x="1915.4" y="99.1" width="24.4" height="24.65" shape-rendering="crispEdges"/><rect fill="#272727" x="1939.8" y="99.1" width="12.2" height="24.65" shape-rendering="crispEdges"/><rect fill="#272727" x="0" y="123.5" width="12.2" height="24.65" shape-rendering="crispEdges"/><rect fill="#272727" x="12.2" y="123.5" width="353.8" height="24.65" shape-rendering="crispEdges"/><rect fill="#272727" x="366" y="123.5" width="1549.4" height="24.65" shape-rendering="crispEdges"/><rect fill="#000000" x="1915.4" y="123.5" width="24.4" height="24.65" shape-rendering="crispEdges"/><rect fill="#272727" x="1939.8" y="123.5" width="12.2" height="24.65" shape-rendering="crispEdges"/><rect fill="#272727" x="0" y="147.9" width="12.2" height="24.65" shape-rendering="crispEdges"/><rect fill="#272727" x="12.2" y="147.9" width="1903.2" height="24.65" shape-rendering="crispEdges"/><rect fill="#000000" x="1915.4" y="147.9" width="24.4" height="24.65" shape-rendering="crispEdges"/><rect fill="#272727" x="1939.8" y="147.9" width="12.2" height="24.65" shape-rendering="crispEdges"/><rect fill="#272727" x="0" y="172.3" width="12.2" height="24.65" shape-rendering="crispEdges"/><rect fill="#272727" x="12.2" y="172.3" width="1903.2" height="24.65" shape-rendering="crispEdges"/><rect fill="#000000" x="1915.4" y="172.3" width="24.4" height="24.65" shape-rendering="crispEdges"/><rect fill="#272727" x="1939.8" y="172.3" width="12.2" height="24.65" shape-rendering="crispEdges"/><rect fill="#272727" x="0" y="196.7" width="12.2" height="24.65" shape-rendering="crispEdges"/><rect fill="#272727" x="12.2" y="196.7" width="1903.2" height="24.65" shape-rendering="crispEdges"/><rect fill="#000000" x="1915.4" y="196.7" width="24.4" height="24.65" shape-rendering="crispEdges"/><rect fill="#272727" x="1939.8" y="196.7" width="12.2" height="24.65" shape-rendering="crispEdges"/><rect fill="#272727" x="0" y="221.1" width="12.2" height="24.65" shape-rendering="crispEdges"/><rect fill="#272727" x="12.2" y="221.1" width="1903.2" height="24.65" shape-rendering="crispEdges"/><rect fill="#000000" x="1915.4" y="221.1" width="24.4" height="24.65" shape-rendering="crispEdges"/><rect fill="#272727" x="1939.8" y="221.1" width="12.2" height="24.65" shape-rendering="crispEdges"/><rect fill="#272727" x="0" y="245.5" width="12.2" height="24.65" shape-rendering="crispEdges"/><rect fill="#272727" x="12.2" y="245.5" width="1903.2" height="24.65" shape-rendering="crispEdges"/><rect fill="#000000" x="1915.4" y="245.5" width="24.4" height="24.65" shape-rendering="crispEdges"/><rect fill="#272727" x="1939.8" y="245.5" width="12.2" height="24.65" shape-rendering="crispEdges"/><rect fill="#272727" x="0" y="269.9" width="12.2" height="24.65" shape-rendering="crispEdges"/><rect fill="#272727" x="12.2" y="269.9" width="1903.2" height="24.65" shape-rendering="crispEdges"/><rect fill="#000000" x="1915.4" y="269.9" width="24.4" height="24.65" shape-rendering="crispEdges"/><rect fill="#272727" x="1939.8" y="269.9" width="12.2" height="24.65" shape-rendering="crispEdges"/><rect fill="#272727" x="0" y="294.3" width="12.2" height="24.65" shape-rendering="crispEdges"/><rect fill="#272727" x="12.2" y="294.3" width="1903.2" height="24.65" shape-rendering="crispEdges"/><rect fill="#000000" x="1915.4" y="294.3" width="24.4" height="24.65" shape-rendering="crispEdges"/><rect fill="#272727" x="1939.8" y="294.3" width="12.2" height="24.65" shape-rendering="crispEdges"/><rect fill="#272727" x="0" y="318.7" width="12.2" height="24.65" shape-rendering="crispEdges"/><rect fill="#272727" x="12.2" y="318.7" width="1903.2" height="24.65" shape-rendering="crispEdges"/><rect fill="#000000" x="1915.4" y="318.7" width="24.4" height="24.65" shape-rendering="crispEdges"/><rect fill="#272727" x="1939.8" y="318.7" width="12.2" height="24.65" shape-rendering="crispEdges"/><rect fill="#272727" x="0" y="343.1" width="12.2" height="24.65" shape-rendering="crispEdges"/><rect fill="#272727" x="12.2" y="343.1" width="1903.2" height="24.65" shape-rendering="crispEdges"/><rect fill="#000000" x="1915.4" y="343.1" width="24.4" height="24.65" shape-rendering="crispEdges"/><rect fill="#272727" x="1939.8" y="343.1" width="12.2" height="24.65" shape-rendering="crispEdges"/><rect fill="#272727" x="0" y="367.5" width="12.2" height="24.65" shape-rendering="crispEdges"/><rect fill="#272727" x="12.2" y="367.5" width="1903.2" height="24.65" shape-rendering="crispEdges"/><rect fill="#000000" x="1915.4" y="367.5" width="24.4" height="24.65" shape-rendering="crispEdges"/><rect fill="#272727" x="1939.8" y="367.5" width="12.2" height="24.65" shape-rendering="crispEdges"/><rect fill="#272727" x="0" y="391.9" width="12.2" height="24.65" shape-rendering="crispEdges"/><rect fill="#272727" x="12.2" y="391.9" width="1903.2" height="24.65" shape-rendering="crispEdges"/><rect fill="#000000" x="1915.4" y="391.9" width="24.4" height="24.65" shape-rendering="crispEdges"/><rect fill="#272727" x="1939.8" y="391.9" width="12.2" height="24.65" shape-rendering="crispEdges"/><rect fill="#272727" x="0" y="416.3" width="12.2" height="24.65" shape-rendering="crispEdges"/><rect fill="#272727" x="12.2" y="416.3" width="1903.2" height="24.65" shape-rendering="crispEdges"/><rect fill="#000000" x="1915.4" y="416.3" width="24.4" height="24.65" shape-rendering="crispEdges"/><rect fill="#272727" x="1939.8" y="416.3" width="12.2" height="24.65" shape-rendering="crispEdges"/><rect fill="#272727" x="0" y="440.7" width="12.2" height="24.65" shape-rendering="crispEdges"/><rect fill="#272727" x="12.2" y="440.7" width="1903.2" height="24.65" shape-rendering="crispEdges"/><rect fill="#000000" x="1915.4" y="440.7" width="24.4" height="24.65" shape-rendering="crispEdges"/><rect fill="#272727" x="1939.8" y="440.7" width="12.2" height="24.65" shape-rendering="crispEdges"/><rect fill="#272727" x="0" y="465.1" width="12.2" height="24.65" shape-rendering="crispEdges"/><rect fill="#272727" x="12.2" y="465.1" width="1903.2" height="24.65" shape-rendering="crispEdges"/><rect fill="#000000" x="1915.4" y="465.1" width="24.4" height="24.65" shape-rendering="crispEdges"/><rect fill="#272727" x="1939.8" y="465.1" width="12.2" height="24.65" shape-rendering="crispEdges"/><rect fill="#272727" x="0" y="489.5" width="12.2" height="24.65" shape-rendering="crispEdges"/><rect fill="#272727" x="12.2" y="489.5" width="1903.2" height="24.65" shape-rendering="crispEdges"/><rect fill="#000000" x="1915.4" y="489.5" width="24.4" height="24.65" shape-rendering="crispEdges"/><rect fill="#272727" x="1939.8" y="489.5" width="12.2" height="24.65" shape-rendering="crispEdges"/><rect fill="#272727" x="0" y="513.9" width="12.2" height="24.65" shape-rendering="crispEdges"/><rect fill="#272727" x="12.2" y="513.9" width="1903.2" height="24.65" shape-rendering="crispEdges"/><rect fill="#000000" x="1915.4" y="513.9" width="24.4" height="24.65" shape-rendering="crispEdges"/><rect fill="#272727" x="1939.8" y="513.9" width="12.2" height="24.65" shape-rendering="crispEdges"/><rect fill="#272727" x="0" y="538.3" width="12.2" height="24.65" shape-rendering="crispEdges"/><rect fill="#272727" x="12.2" y="538.3" width="1903.2" height="24.65" shape-rendering="crispEdges"/><rect fill="#000000" x="1915.4" y="538.3" width="24.4" height="24.65" shape-rendering="crispEdges"/><rect fill="#272727" x="1939.8" y="538.3" width="12.2" height="24.65" shape-rendering="crispEdges"/><rect fill="#272727" x="0" y="562.7" width="12.2" height="24.65" shape-rendering="crispEdges"/><rect fill="#272727" x="12.2" y="562.7" width="1903.2" height="24.65" shape-rendering="crispEdges"/><rect fill="#000000" x="1915.4" y="562.7" width="24.4" height="24.65" shape-rendering="crispEdges"/><rect fill="#272727" x="1939.8" y="562.7" width="12.2" height="24.65" shape-rendering="crispEdges"/><rect fill="#272727" x="0" y="587.1" width="12.2" height="24.65" shape-rendering="crispEdges"/><rect fill="#272727" x="12.2" y="587.1" width="1903.2" height="24.65" shape-rendering="crispEdges"/><rect fill="#000000" x="1915.4" y="587.1" width="24.4" height="24.65" shape-rendering="crispEdges"/><rect fill="#272727" x="1939.8" y="587.1" width="12.2" height="24.65" shape-rendering="crispEdges"/><rect fill="#272727" x="0" y="611.5" width="12.2" height="24.65" shape-rendering="crispEdges"/><rect fill="#272727" x="12.2" y="611.5" width="1903.2" height="24.65" shape-rendering="crispEdges"/><rect fill="#000000" x="1915.4" y="611.5" width="24.4" height="24.65" shape-rendering="crispEdges"/><rect fill="#272727" x="1939.8" y="611.5" width="12.2" height="24.65" shape-rendering="crispEdges"/><rect fill="#272727" x="0" y="635.9" width="12.2" height="24.65" shape-rendering="crispEdges"/><rect fill="#272727" x="12.2" y="635.9" width="1903.2" height="24.65" shape-rendering="crispEdges"/><rect fill="#000000" x="1915.4" y="635.9" width="24.4" height="24.65" shape-rendering="crispEdges"/><rect fill="#272727" x="1939.8" y="635.9" width="12.2" height="24.65" shape-rendering="crispEdges"/><rect fill="#272727" x="0" y="660.3" width="12.2" height="24.65" shape-rendering="crispEdges"/><rect fill="#272727" x="12.2" y="660.3" width="1903.2" height="24.65" shape-rendering="crispEdges"/><rect fill="#000000" x="1915.4" y="660.3" width="24.4" height="24.65" shape-rendering="crispEdges"/><rect fill="#272727" x="1939.8" y="660.3" width="12.2" height="24.65" shape-rendering="crispEdges"/><rect fill="#272727" x="0" y="684.7" width="12.2" height="24.65" shape-rendering="crispEdges"/><rect fill="#272727" x="12.2" y="684.7" width="1903.2" height="24.65" shape-rendering="crispEdges"/><rect fill="#000000" x="1915.4" y="684.7" width="24.4" height="24.65" shape-rendering="crispEdges"/><rect fill="#272727" x="1939.8" y="684.7" width="12.2" height="24.65" shape-rendering="crispEdges"/><rect fill="#272727" x="0" y="709.1" width="12.2" height="24.65" shape-rendering="crispEdges"/><rect fill="#272727" x="12.2" y="709.1" width="1903.2" height="24.65" shape-rendering="crispEdges"/><rect fill="#000000" x="1915.4" y="709.1" width="24.4" height="24.65" shape-rendering="crispEdges"/><rect fill="#272727" x="1939.8" y="709.1" width="12.2" height="24.65" shape-rendering="crispEdges"/><rect fill="#272727" x="0" y="733.5" width="12.2" height="24.65" shape-rendering="crispEdges"/><rect fill="#272727" x="12.2" y="733.5" width="1903.2" height="24.65" shape-rendering="crispEdges"/><rect fill="#000000" x="1915.4" y="733.5" width="24.4" height="24.65" shape-rendering="crispEdges"/><rect fill="#272727" x="1939.8" y="733.5" width="12.2" height="24.65" shape-rendering="crispEdges"/><rect fill="#272727" x="0" y="757.9" width="12.2" height="24.65" shape-rendering="crispEdges"/><rect fill="#272727" x="12.2" y="757.9" width="1903.2" height="24.65" shape-rendering="crispEdges"/><rect fill="#000000" x="1915.4" y="757.9" width="24.4" height="24.65" shape-rendering="crispEdges"/><rect fill="#272727" x="1939.8" y="757.9" width="12.2" height="24.65" shape-rendering="crispEdges"/><rect fill="#272727" x="0" y="782.3" width="12.2" height="24.65" shape-rendering="crispEdges"/><rect fill="#272727" x="12.2" y="782.3" width="1903.2" height="24.65" shape-rendering="crispEdges"/><rect fill="#000000" x="1915.4" y="782.3" width="24.4" height="24.65" shape-rendering="crispEdges"/><rect fill="#272727" x="1939.8" y="782.3" width="12.2" height="24.65" shape-rendering="crispEdges"/><rect fill="#272727" x="0" y="806.7" width="12.2" height="24.65" shape-rendering="crispEdges"/><rect fill="#272727" x="12.2" y="806.7" width="1903.2" height="24.65" shape-rendering="crispEdges"/><rect fill="#000000" x="1915.4" y="806.7" width="24.4" height="24.65" shape-rendering="crispEdges"/><rect fill="#272727" x="1939.8" y="806.7" width="12.2" height="24.65" shape-rendering="crispEdges"/><rect fill="#272727" x="0" y="831.1" width="12.2" height="24.65" shape-rendering="crispEdges"/><rect fill="#272727" x="12.2" y="831.1" width="1903.2" height="24.65" shape-rendering="crispEdges"/><rect fill="#000000" x="1915.4" y="831.1" width="24.4" height="24.65" shape-rendering="crispEdges"/><rect fill="#272727" x="1939.8" y="831.1" width="12.2" height="24.65" shape-rendering="crispEdges"/><rect fill="#272727" x="0" y="855.5" width="12.2" height="24.65" shape-rendering="crispEdges"/><rect fill="#272727" x="12.2" y="855.5" width="1903.2" height="24.65" shape-rendering="crispEdges"/><rect fill="#000000" x="1915.4" y="855.5" width="24.4" height="24.65" shape-rendering="crispEdges"/><rect fill="#272727" x="1939.8" y="855.5" width="12.2" height="24.65" shape-rendering="crispEdges"/><rect fill="#272727" x="0" y="879.9" width="12.2" height="24.65" shape-rendering="crispEdges"/><rect fill="#272727" x="12.2" y="879.9" width="1927.6" height="24.65" shape-rendering="crispEdges"/><rect fill="#272727" x="1939.8" y="879.9" width="12.2" height="24.65" shape-rendering="crispEdges"/><rect fill="#191919" x="0" y="904.3" width="12.2" height="24.65" shape-rendering="crispEdges"/><rect fill="#1e1e1e" x="12.2" y="904.3" width="1927.6" height="24.65" shape-rendering="crispEdges"/><rect fill="#121212" x="1939.8" y="904.3" width="12.2" height="24.65" shape-rendering="crispEdges"/><rect fill="#191919" x="0" y="928.7" width="12.2" height="24.65" shape-rendering="crispEdges"/><rect fill="#1e1e1e" x="12.2" y="928.7" width="24.4" height="24.65" shape-rendering="crispEdges"/><rect fill="#1e1e1e" x="36.6" y="928.7" width="183" height="24.65" shape-rendering="crispEdges"/><rect fill="#1e1e1e" x="219.6" y="928.7" width="1695.8" height="24.65" shape-rendering="crispEdges"/><rect fill="#1e1e1e" x="1915.4" y="928.7" width="24.4" height="24.65" shape-rendering="crispEdges"/><rect fill="#121212" x="1939.8" y="928.7" width="12.2" height="24.65" shape-rendering="crispEdges"/><rect fill="#191919" x="0" y="953.1" width="12.2" height="24.65" shape-rendering="crispEdges"/><rect fill="#1e1e1e" x="12.2" y="953.1" width="1927.6" height="24.65" shape-rendering="crispEdges"/><rect fill="#121212" x="1939.8" y="953.1" width="12.2" height="24.65" shape-rendering="crispEdges"/>
    <g class="terminal-4189979937-matrix">
    <text class="terminal-4189979937-r1" x="0" y="20" textLength="12.2" clip-path="url(#terminal-4189979937-line-0)">┌</text><text class="terminal-4189979937-r1" x="12.2" y="20" textLength="1927.6" clip-path="url(#terminal-4189979937-line-0)">──────────────────────────────────────────────────────────────────────────────────────────────────────────────────────────────────────────────────────────────</text><text class="terminal-4189979937-r1" x="1939.8" y="20" textLength="12.2" clip-path="url(#terminal-4189979937-line-0)">┐</text><text class="terminal-4189979937-r2" x="1952" y="20" textLength="12.2" clip-path="url(#terminal-4189979937-line-0)">
</text><text class="terminal-4189979937-r1" x="0" y="44.4" textLength="12.2" clip-path="url(#terminal-4189979937-line-1)">│</text><text class="terminal-4189979937-r3" x="12.2" y="44.4" textLength="48.8" clip-path="url(#terminal-4189979937-line-1)">You:</text><text class="terminal-4189979937-r4" x="61" y="44.4" textLength="353.8" clip-path="url(#terminal-4189979937-line-1)">&#160;show&#160;me&#160;Q4&#160;revenue&#160;by&#160;region</text><text class="terminal-4189979937-r1" x="1939.8" y="44.4" textLength="12.2" clip-path="url(#terminal-4189979937-line-1)">│</text><text class="terminal-4189979937-r2" x="1952" y="44.4" textLength="12.2" clip-path="url(#terminal-4189979937-line-1)">
</text><text class="terminal-4189979937-r1" x="0" y="68.8" textLength="12.2" clip-path="url(#terminal-4189979937-line-2)">│</text><text class="terminal-4189979937-r5" x="12.2" y="68.8" textLength="73.2" clip-path="url(#terminal-4189979937-line-2)">Agent:</text><text class="terminal-4189979937-r4" x="85.4" y="68.8" textLength="890.6" clip-path="url(#terminal-4189979937-line-2)">&#160;I&#x27;ll&#160;query&#160;orders&#160;joined&#160;to&#160;regions,&#160;filtering&#160;to&#160;Q4&#160;2025&#160;with&#160;status&#160;=&#160;</text><text class="terminal-4189979937-r1" x="1939.8" y="68.8" textLength="12.2" clip-path="url(#terminal-4189979937-line-2)">│</text><text class="terminal-4189979937-r2" x="1952" y="68.8" textLength="12.2" clip-path="url(#terminal-4189979937-line-2)">
</text><text class="terminal-4189979937-r1" x="0" y="93.2" textLength="12.2" clip-path="url(#terminal-4189979937-line-3)">│</text><text class="terminal-4189979937-r4" x="12.2" y="93.2" textLength="146.4" clip-path="url(#terminal-4189979937-line-3)">&#x27;completed&#x27;.</text><text class="terminal-4189979937-r1" x="1939.8" y="93.2" textLength="12.2" clip-path="url(#terminal-4189979937-line-3)">│</text><text class="terminal-4189979937-r2" x="1952" y="93.2" textLength="12.2" clip-path="url(#terminal-4189979937-line-3)">
</text><text class="terminal-4189979937-r1" x="0" y="117.6" textLength="12.2" clip-path="url(#terminal-4189979937-line-4)">│</text><text class="terminal-4189979937-r6" x="12.2" y="117.6" textLength="219.6" clip-path="url(#terminal-4189979937-line-4)">▸&#160;list_tables()&#160;→&#160;</text><text class="terminal-4189979937-r1" x="1939.8" y="117.6" textLength="12.2" clip-path="url(#terminal-4189979937-line-4)">│</text><text class="terminal-4189979937-r2" x="1952" y="117.6" textLength="12.2" clip-path="url(#terminal-4189979937-line-4)">
</text><text class="terminal-4189979937-r1" x="0" y="142" textLength="12.2" clip-path="url(#terminal-4189979937-line-5)">│</text><text class="terminal-4189979937-r6" x="12.2" y="142" textLength="353.8" clip-path="url(#terminal-4189979937-line-5)">▸&#160;run_sql(…)&#160;→&#160;5&#160;rows&#160;in&#160;42ms</text><text class="terminal-4189979937-r1" x="1939.8" y="142" textLength="12.2" clip-path="url(#terminal-4189979937-line-5)">│</text><text class="terminal-4189979937-r2" x="1952" y="142" textLength="12.2" clip-path="url(#terminal-4189979937-line-5)">
</text><text class="terminal-4189979937-r1" x="0" y="166.4" textLength="12.2" clip-path="url(#terminal-4189979937-line-6)">│</text><text class="terminal-4189979937-r1" x="1939.8" y="166.4" textLength="12.2" clip-path="url(#terminal-4189979937-line-6)">│</text><text class="terminal-4189979937-r2" x="1952" y="166.4" textLength="12.2" clip-path="url(#terminal-4189979937-line-6)">
</text><text class="terminal-4189979937-r1" x="0" y="190.8" textLength="12.2" clip-path="url(#terminal-4189979937-line-7)">│</text><text class="terminal-4189979937-r1" x="1939.8" y="190.8" textLength="12.2" clip-path="url(#terminal-4189979937-line-7)">│</text><text class="terminal-4189979937-r2" x="1952" y="190.8" textLength="12.2" clip-path="url(#terminal-4189979937-line-7)">
</text><text class="terminal-4189979937-r1" x="0" y="215.2" textLength="12.2" clip-path="url(#terminal-4189979937-line-8)">│</text><text class="terminal-4189979937-r1" x="1939.8" y="215.2" textLength="12.2" clip-path="url(#terminal-4189979937-line-8)">│</text><text class="terminal-4189979937-r2" x="1952" y="215.2" textLength="12.2" clip-path="url(#terminal-4189979937-line-8)">
</text><text class="terminal-4189979937-r1" x="0" y="239.6" textLength="12.2" clip-path="url(#terminal-4189979937-line-9)">│</text><text class="terminal-4189979937-r1" x="1939.8" y="239.6" textLength="12.2" clip-path="url(#terminal-4189979937-line-9)">│</text><text class="terminal-4189979937-r2" x="1952" y="239.6" textLength="12.2" clip-path="url(#terminal-4189979937-line-9)">
</text><text class="terminal-4189979937-r1" x="0" y="264" textLength="12.2" clip-path="url(#terminal-4189979937-line-10)">│</text><text class="terminal-4189979937-r1" x="1939.8" y="264" textLength="12.2" clip-path="url(#terminal-4189979937-line-10)">│</text><text class="terminal-4189979937-r2" x="1952" y="264" textLength="12.2" clip-path="url(#terminal-4189979937-line-10)">
</text><text class="terminal-4189979937-r1" x="0" y="288.4" textLength="12.2" clip-path="url(#terminal-4189979937-line-11)">│</text><text class="terminal-4189979937-r1" x="1939.8" y="288.4" textLength="12.2" clip-path="url(#terminal-4189979937-line-11)">│</text><text class="terminal-4189979937-r2" x="1952" y="288.4" textLength="12.2" clip-path="url(#terminal-4189979937-line-11)">
</text><text class="terminal-4189979937-r1" x="0" y="312.8" textLength="12.2" clip-path="url(#terminal-4189979937-line-12)">│</text><text class="terminal-4189979937-r1" x="1939.8" y="312.8" textLength="12.2" clip-path="url(#terminal-4189979937-line-12)">│</text><text class="terminal-4189979937-r2" x="1952" y="312.8" textLength="12.2" clip-path="url(#terminal-4189979937-line-12)">
</text><text class="terminal-4189979937-r1" x="0" y="337.2" textLength="12.2" clip-path="url(#terminal-4189979937-line-13)">│</text><text class="terminal-4189979937-r1" x="1939.8" y="337.2" textLength="12.2" clip-path="url(#terminal-4189979937-line-13)">│</text><text class="terminal-4189979937-r2" x="1952" y="337.2" textLength="12.2" clip-path="url(#terminal-4189979937-line-13)">
</text><text class="terminal-4189979937-r1" x="0" y="361.6" textLength="12.2" clip-path="url(#terminal-4189979937-line-14)">│</text><text class="terminal-4189979937-r1" x="1939.8" y="361.6" textLength="12.2" clip-path="url(#terminal-4189979937-line-14)">│</text><text class="terminal-4189979937-r2" x="1952" y="361.6" textLength="12.2" clip-path="url(#terminal-4189979937-line-14)">
</text><text class="terminal-4189979937-r1" x="0" y="386" textLength="12.2" clip-path="url(#terminal-4189979937-line-15)">│</text><text class="terminal-4189979937-r1" x="1939.8" y="386" textLength="12.2" clip-path="url(#terminal-4189979937-line-15)">│</text><text class="terminal-4189979937-r2" x="1952" y="386" textLength="12.2" clip-path="url(#terminal-4189979937-line-15)">
</text><text class="terminal-4189979937-r1" x="0" y="410.4" textLength="12.2" clip-path="url(#terminal-4189979937-line-16)">│</text><text class="terminal-4189979937-r1" x="1939.8" y="410.4" textLength="12.2" clip-path="url(#terminal-4189979937-line-16)">│</text><text class="terminal-4189979937-r2" x="1952" y="410.4" textLength="12.2" clip-path="url(#terminal-4189979937-line-16)">
</text><text class="terminal-4189979937-r1" x="0" y="434.8" textLength="12.2" clip-path="url(#terminal-4189979937-line-17)">│</text><text class="terminal-4189979937-r1" x="1939.8" y="434.8" textLength="12.2" clip-path="url(#terminal-4189979937-line-17)">│</text><text class="terminal-4189979937-r2" x="1952" y="434.8" textLength="12.2" clip-path="url(#terminal-4189979937-line-17)">
</text><text class="terminal-4189979937-r1" x="0" y="459.2" textLength="12.2" clip-path="url(#terminal-4189979937-line-18)">│</text><text class="terminal-4189979937-r1" x="1939.8" y="459.2" textLength="12.2" clip-path="url(#terminal-4189979937-line-18)">│</text><text class="terminal-4189979937-r2" x="1952" y="459.2" textLength="12.2" clip-path="url(#terminal-4189979937-line-18)">
</text><text class="terminal-4189979937-r1" x="0" y="483.6" textLength="12.2" clip-path="url(#terminal-4189979937-line-19)">│</text><text class="terminal-4189979937-r1" x="1939.8" y="483.6" textLength="12.2" clip-path="url(#terminal-4189979937-line-19)">│</text><text class="terminal-4189979937-r2" x="1952" y="483.6" textLength="12.2" clip-path="url(#terminal-4189979937-line-19)">
</text><text class="terminal-4189979937-r1" x="0" y="508" textLength="12.2" clip-path="url(#terminal-4189979937-line-20)">│</text><text class="terminal-4189979937-r1" x="1939.8" y="508" textLength="12.2" clip-path="url(#terminal-4189979937-line-20)">│</text><text class="terminal-4189979937-r2" x="1952" y="508" textLength="12.2" clip-path="url(#terminal-4189979937-line-20)">
</text><text class="terminal-4189979937-r1" x="0" y="532.4" textLength="12.2" clip-path="url(#terminal-4189979937-line-21)">│</text><text class="terminal-4189979937-r1" x="1939.8" y="532.4" textLength="12.2" clip-path="url(#terminal-4189979937-line-21)">│</text><text class="terminal-4189979937-r2" x="1952" y="532.4" textLength="12.2" clip-path="url(#terminal-4189979937-line-21)">
</text><text class="terminal-4189979937-r1" x="0" y="556.8" textLength="12.2" clip-path="url(#terminal-4189979937-line-22)">│</text><text class="terminal-4189979937-r1" x="1939.8" y="556.8" textLength="12.2" clip-path="url(#terminal-4189979937-line-22)">│</text><text class="terminal-4189979937-r2" x="1952" y="556.8" textLength="12.2" clip-path="url(#terminal-4189979937-line-22)">
</text><text class="terminal-4189979937-r1" x="0" y="581.2" textLength="12.2" clip-path="url(#terminal-4189979937-line-23)">│</text><text class="terminal-4189979937-r1" x="1939.8" y="581.2" textLength="12.2" clip-path="url(#terminal-4189979937-line-23)">│</text><text class="terminal-4189979937-r2" x="1952" y="581.2" textLength="12.2" clip-path="url(#terminal-4189979937-line-23)">
</text><text class="terminal-4189979937-r1" x="0" y="605.6" textLength="12.2" clip-path="url(#terminal-4189979937-line-24)">│</text><text class="terminal-4189979937-r1" x="1939.8" y="605.6" textLength="12.2" clip-path="url(#terminal-4189979937-line-24)">│</text><text class="terminal-4189979937-r2" x="1952" y="605.6" textLength="12.2" clip-path="url(#terminal-4189979937-line-24)">
</text><text class="terminal-4189979937-r1" x="0" y="630" textLength="12.2" clip-path="url(#terminal-4189979937-line-25)">│</text><text class="terminal-4189979937-r1" x="1939.8" y="630" textLength="12.2" clip-path="url(#terminal-4189979937-line-25)">│</text><text class="terminal-4189979937-r2" x="1952" y="630" textLength="12.2" clip-path="url(#terminal-4189979937-line-25)">
</text><text class="terminal-4189979937-r1" x="0" y="654.4" textLength="12.2" clip-path="url(#terminal-4189979937-line-26)">│</text><text class="terminal-4189979937-r1" x="1939.8" y="654.4" textLength="12.2" clip-path="url(#terminal-4189979937-line-26)">│</text><text class="terminal-4189979937-r2" x="1952" y="654.4" textLength="12.2" clip-path="url(#terminal-4189979937-line-26)">
</text><text class="terminal-4189979937-r1" x="0" y="678.8" textLength="12.2" clip-path="url(#terminal-4189979937-line-27)">│</text><text class="terminal-4189979937-r1" x="1939.8" y="678.8" textLength="12.2" clip-path="url(#terminal-4189979937-line-27)">│</text><text class="terminal-4189979937-r2" x="1952" y="678.8" textLength="12.2" clip-path="url(#terminal-4189979937-line-27)">
</text><text class="terminal-4189979937-r1" x="0" y="703.2" textLength="12.2" clip-path="url(#terminal-4189979937-line-28)">│</text><text class="terminal-4189979937-r1" x="1939.8" y="703.2" textLength="12.2" clip-path="url(#terminal-4189979937-line-28)">│</text><text class="terminal-4189979937-r2" x="1952" y="703.2" textLength="12.2" clip-path="url(#terminal-4189979937-line-28)">
</text><text class="terminal-4189979937-r1" x="0" y="727.6" textLength="12.2" clip-path="url(#terminal-4189979937-line-29)">│</text><text class="terminal-4189979937-r1" x="1939.8" y="727.6" textLength="12.2" clip-path="url(#terminal-4189979937-line-29)">│</text><text class="terminal-4189979937-r2" x="1952" y="727.6" textLength="12.2" clip-path="url(#terminal-4189979937-line-29)">
</text><text class="terminal-4189979937-r1" x="0" y="752" textLength="12.2" clip-path="url(#terminal-4189979937-line-30)">│</text><text class="terminal-4189979937-r1" x="1939.8" y="752" textLength="12.2" clip-path="url(#terminal-4189979937-line-30)">│</text><text class="terminal-4189979937-r2" x="1952" y="752" textLength="12.2" clip-path="url(#terminal-4189979937-line-30)">
</text><text class="terminal-4189979937-r1" x="0" y="776.4" textLength="12.2" clip-path="url(#terminal-4189979937-line-31)">│</text><text class="terminal-4189979937-r1" x="1939.8" y="776.4" textLength="12.2" clip-path="url(#terminal-4189979937-line-31)">│</text><text class="terminal-4189979937-r2" x="1952" y="776.4" textLength="12.2" clip-path="url(#terminal-4189979937-line-31)">
</text><text class="terminal-4189979937-r1" x="0" y="800.8" textLength="12.2" clip-path="url(#terminal-4189979937-line-32)">│</text><text class="terminal-4189979937-r1" x="1939.8" y="800.8" textLength="12.2" clip-path="url(#terminal-4189979937-line-32)">│</text><text class="terminal-4189979937-r2" x="1952" y="800.8" textLength="12.2" clip-path="url(#terminal-4189979937-line-32)">
</text><text class="terminal-4189979937-r1" x="0" y="825.2" textLength="12.2" clip-path="url(#terminal-4189979937-line-33)">│</text><text class="terminal-4189979937-r1" x="1939.8" y="825.2" textLength="12.2" clip-path="url(#terminal-4189979937-line-33)">│</text><text class="terminal-4189979937-r2" x="1952" y="825.2" textLength="12.2" clip-path="url(#terminal-4189979937-line-33)">
</text><text class="terminal-4189979937-r1" x="0" y="849.6" textLength="12.2" clip-path="url(#terminal-4189979937-line-34)">│</text><text class="terminal-4189979937-r1" x="1939.8" y="849.6" textLength="12.2" clip-path="url(#terminal-4189979937-line-34)">│</text><text class="terminal-4189979937-r2" x="1952" y="849.6" textLength="12.2" clip-path="url(#terminal-4189979937-line-34)">
</text><text class="terminal-4189979937-r1" x="0" y="874" textLength="12.2" clip-path="url(#terminal-4189979937-line-35)">│</text><text class="terminal-4189979937-r1" x="1939.8" y="874" textLength="12.2" clip-path="url(#terminal-4189979937-line-35)">│</text><text class="terminal-4189979937-r2" x="1952" y="874" textLength="12.2" clip-path="url(#terminal-4189979937-line-35)">
</text><text class="terminal-4189979937-r1" x="0" y="898.4" textLength="12.2" clip-path="url(#terminal-4189979937-line-36)">└</text><text class="terminal-4189979937-r1" x="12.2" y="898.4" textLength="1927.6" clip-path="url(#terminal-4189979937-line-36)">──────────────────────────────────────────────────────────────────────────────────────────────────────────────────────────────────────────────────────────────</text><text class="terminal-4189979937-r1" x="1939.8" y="898.4" textLength="12.2" clip-path="url(#terminal-4189979937-line-36)">┘</text><text class="terminal-4189979937-r2" x="1952" y="898.4" textLength="12.2" clip-path="url(#terminal-4189979937-line-36)">
</text><text class="terminal-4189979937-r7" x="0" y="922.8" textLength="12.2" clip-path="url(#terminal-4189979937-line-37)">▊</text><text class="terminal-4189979937-r8" x="12.2" y="922.8" textLength="1927.6" clip-path="url(#terminal-4189979937-line-37)">▔▔▔▔▔▔▔▔▔▔▔▔▔▔▔▔▔▔▔▔▔▔▔▔▔▔▔▔▔▔▔▔▔▔▔▔▔▔▔▔▔▔▔▔▔▔▔▔▔▔▔▔▔▔▔▔▔▔▔▔▔▔▔▔▔▔▔▔▔▔▔▔▔▔▔▔▔▔▔▔▔▔▔▔▔▔▔▔▔▔▔▔▔▔▔▔▔▔▔▔▔▔▔▔▔▔▔▔▔▔▔▔▔▔▔▔▔▔▔▔▔▔▔▔▔▔▔▔▔▔▔▔▔▔▔▔▔▔▔▔▔▔▔▔▔▔▔▔▔▔▔▔▔▔▔▔▔▔</text><text class="terminal-4189979937-r8" x="1939.8" y="922.8" textLength="12.2" clip-path="url(#terminal-4189979937-line-37)">▎</text><text class="terminal-4189979937-r2" x="1952" y="922.8" textLength="12.2" clip-path="url(#terminal-4189979937-line-37)">
</text><text class="terminal-4189979937-r7" x="0" y="947.2" textLength="12.2" clip-path="url(#terminal-4189979937-line-38)">▊</text><text class="terminal-4189979937-r9" x="36.6" y="947.2" textLength="183" clip-path="url(#terminal-4189979937-line-38)">Ask&#160;a&#160;question…</text><text class="terminal-4189979937-r8" x="1939.8" y="947.2" textLength="12.2" clip-path="url(#terminal-4189979937-line-38)">▎</text><text class="terminal-4189979937-r2" x="1952" y="947.2" textLength="12.2" clip-path="url(#terminal-4189979937-line-38)">
</text><text class="terminal-4189979937-r7" x="0" y="971.6" textLength="12.2" clip-path="url(#terminal-4189979937-line-39)">▊</text><text class="terminal-4189979937-r8" x="12.2" y="971.6" textLength="1927.6" clip-path="url(#terminal-4189979937-line-39)">▁▁▁▁▁▁▁▁▁▁▁▁▁▁▁▁▁▁▁▁▁▁▁▁▁▁▁▁▁▁▁▁▁▁▁▁▁▁▁▁▁▁▁▁▁▁▁▁▁▁▁▁▁▁▁▁▁▁▁▁▁▁▁▁▁▁▁▁▁▁▁▁▁▁▁▁▁▁▁▁▁▁▁▁▁▁▁▁▁▁▁▁▁▁▁▁▁▁▁▁▁▁▁▁▁▁▁▁▁▁▁▁▁▁▁▁▁▁▁▁▁▁▁▁▁▁▁▁▁▁▁▁▁▁▁▁▁▁▁▁▁▁▁▁▁▁▁▁▁▁▁▁▁▁▁▁▁▁</text><text class="terminal-4189979937-r8" x="1939.8" y="971.6" textLength="12.2" clip-path="url(#terminal-4189979937-line-39)">▎</text>
    </g>
    </g>
</svg>
