<svg class="rich-terminal" viewBox="0 0 1726 1074.8" xmlns="http://www.w3.org/2000/svg">
    <!-- Generated with Rich https://www.textualize.io -->
    <style>

    @font-face {
        font-family: "Fira Code";
        src: local("FiraCode-Regular"),
                url("https://cdnjs.cloudflare.com/ajax/libs/firacode/6.2.0/woff2/FiraCode-Regular.woff2") format("woff2"),
                url("https://cdnjs.cloudflare.com/ajax/libs/firacode/6.2.0/woff/FiraCode-Regular.woff") format("woff");
        font-style: normal;
        font-weight: 400;
    }
    @font-face {
        font-family: "Fira Code";
        src: local("FiraCode-Bold"),
                url("https://cdnjs.cloudflare.com/ajax/libs/firacode/6.2.0/woff2/FiraCode-Bold.woff2") format("woff2"),
                url("https://cdnjs.cloudflare.com/ajax/libs/firacode/6.2.0/woff/FiraCode-Bold.woff") format("woff");
        font-style: bold;
        font-weight: 700;
    }

    .terminal-1769497412-matrix {
        font-family: Fira Code, monospace;
        font-size: 20px;
        line-height: 24.4px;
        font-variant-east-asian: full-width;
    }

    .terminal-1769497412-title {
        font-size: 18px;
        font-weight: bold;
        font-family: arial;
    }

    .terminal-1769497412-r1 { fill: #ffffff;font-weight: bold }
.terminal-1769497412-r2 { fill: #c5c8c6 }
.terminal-1769497412-r3 { fill: #58d1eb;font-weight: bold }
.terminal-1769497412-r4 { fill: #e0e0e0 }
.terminal-1769497412-r5 { fill: #9b9d9f }
.terminal-1769497412-r6 { fill: #a80949 }
.terminal-1769497412-r7 { fill: #9b9d9f;font-weight: bold }
.terminal-1769497412-r8 { fill: #4193a6;font-weight: bold }
.terminal-1769497412-r9 { fill: #f8f8f2 }
.terminal-1769497412-r10 { fill: #ff4689 }
.terminal-1769497412-r11 { fill: #e6db74 }
.terminal-1769497412-r12 { fill: #66d9ef }
.terminal-1769497412-r13 { fill: #ae81ff }
    </style>

    <defs>
    <clipPath id="terminal-1769497412-clip-terminal">
      <rect x="0" y="0" width="1707.0" height="1023.8" />
    </clipPath>
    <clipPath id="terminal-1769497412-line-0">
    <rect x="0" y="1.5" width="1708" height="24.65"/>
            </clipPath>
<clipPath id="terminal-1769497412-line-1">
    <rect x="0" y="25.9" width="1708" height="24.65"/>
            </clipPath>
<clipPath id="terminal-1769497412-line-2">
    <rect x="0" y="50.3" width="1708" height="24.65"/>
            </clipPath>
<clipPath id="terminal-1769497412-line-3">
    <rect x="0" y="74.7" width="1708" height="24.65"/>
            </clipPath>
<clipPath id="terminal-1769497412-line-4">
    <rect x="0" y="99.1" width="1708" height="24.65"/>
            </clipPath>
<clipPath id="terminal-1769497412-line-5">
    <rect x="0" y="123.5" width="1708" height="24.65"/>
            </clipPath>
<clipPath id="terminal-1769497412-line-6">
    <rect x="0" y="147.9" width="1708" height="24.65"/>
            </clipPath>
<clipPath id="terminal-1769497412-line-7">
    <rect x="0" y="172.3" width="1708" height="24.65"/>
            </clipPath>
<clipPath id="terminal-1769497412-line-8">
    <rect x="0" y="196.7" width="1708" height="24.65"/>
            </clipPath>
<clipPath id="terminal-1769497412-line-9">
    <rect x="0" y="221.1" width="1708" height="24.65"/>
            </clipPath>
<clipPath id="terminal-1769497412-line-10">
    <rect x="0" y="245.5" width="1708" height="24.65"/>
            </clipPath>
<clipPath id="terminal-1769497412-line-11">
    <rect x="0" y="269.9" width="1708" height="24.65"/>
            </clipPath>
<clipPath id="terminal-1769497412-line-12">
    <rect x="0" y="294.3" width="1708" height="24.65"/>
            </clipPath>
<clipPath id="terminal-1769497412-line-13">
    <rect x="0" y="318.7" width="1708" height="24.65"/>
            </clipPath>
<clipPath id="terminal-1769497412-line-14">
    <rect x="0" y="343.1" width="1708" height="24.65"/>
            </clipPath>
<clipPath id="terminal-1769497412-line-15">
    <rect x="0" y="367.5" width="1708" height="24.65"/>
            </clipPath>
<clipPath id="terminal-1769497412-line-16">
    <rect x="0" y="391.9" width="1708" height="24.65"/>
            </clipPath>
<clipPath id="terminal-1769497412-line-17">
    <rect x="0" y="416.3" width="1708" height="24.65"/>
            </clipPath>
<clipPath id="terminal-1769497412-line-18">
    <rect x="0" y="440.7" width="1708" height="24.65"/>
            </clipPath>
<clipPath id="terminal-1769497412-line-19">
    <rect x="0" y="465.1" width="1708" height="24.65"/>
            </clipPath>
<clipPath id="terminal-1769497412-line-20">
    <rect x="0" y="489.5" width="1708" height="24.65"/>
            </clipPath>
<clipPath id="terminal-1769497412-line-21">
    <rect x="0" y="513.9" width="1708" height="24.65"/>
            </clipPath>
<clipPath id="terminal-1769497412-line-22">
    <rect x="0" y="538.3" width="1708" height="24.65"/>
            </clipPath>
<clipPath id="terminal-1769497412-line-23">
    <rect x="0" y="562.7" width="1708" height="24.65"/>
            </clipPath>
<clipPath id="terminal-1769497412-line-24">
    <rect x="0" y="587.1" width="1708" height="24.65"/>
            </clipPath>
<clipPath id="terminal-1769497412-line-25">
    <rect x="0" y="611.5" width="1708" height="24.65"/>
            </clipPath>
<clipPath id="terminal-1769497412-line-26">
    <rect x="0" y="635.9" width="1708" height="24.65"/>
            </clipPath>
<clipPath id="terminal-1769497412-line-27">
    <rect x="0" y="660.3" width="1708" height="24.65"/>
            </clipPath>
<clipPath id="terminal-1769497412-line-28">
    <rect x="0" y="684.7" width="1708" height="24.65"/>
            </clipPath>
<clipPath id="terminal-1769497412-line-29">
    <rect x="0" y="709.1" width="1708" height="24.65"/>
            </clipPath>
<clipPath id="terminal-1769497412-line-30">
    <rect x="0" y="733.5" width="1708" height="24.65"/>
            </clipPath>
<clipPath id="terminal-1769497412-line-31">
    <rect x="0" y="757.9" width="1708" height="24.65"/>
            </clipPath>
<clipPath id="terminal-1769497412-line-32">
    <rect x="0" y="782.3" width="1708" height="24.65"/>
            </clipPath>
<clipPath id="terminal-1769497412-line-33">
    <rect x="0" y="806.7" width="1708" height="24.65"/>
            </clipPath>
<clipPath id="terminal-1769497412-line-34">
    <rect x="0" y="831.1" width="1708" height="24.65"/>
            </clipPath>
<clipPath id="terminal-1769497412-line-35">
    <rect x="0" y="855.5" width="1708" height="24.65"/>
            </clipPath>
<clipPath id="terminal-1769497412-line-36">
    <rect x="0" y="879.9" width="1708" height="24.65"/>
            </clipPath>
<clipPath id="terminal-1769497412-line-37">
    <rect x="0" y="904.3" width="1708" height="24.65"/>
            </clipPath>
<clipPath id="terminal-1769497412-line-38">
    <rect x="0" y="928.7" width="1708" height="24.65"/>
            </clipPath>
<clipPath id="terminal-1769497412-line-39">
    <rect x="0" y="953.1" width="1708" height="24.65"/>
            </clipPath>
<clipPath id="terminal-1769497412-line-40">
    <rect x="0" y="977.5" width="1708" height="24.65"/>
            </clipPath>
    </defs>

    <rect fill="#292929" stroke="rgba(255,255,255,0.35)" stroke-width="1" x="1" y="1" width="1724" height="1072.8" rx="8"/><text class="terminal-1769497412-title" fill="#c5c8c6" text-anchor="middle" x="862" y="27">_Demo</text>
            <g transform="translate(26,22)">
            <circle cx="0" cy="0" r="7" fill="#ff5f57"/>
            <circle cx="22" cy="0" r="7" fill="#febc2e"/>
            <circle cx="44" cy="0" r="7" fill="#28c840"/>
            </g>
        
    <g transform="translate(9, 41)" clip-path="url(#terminal-1769497412-clip-terminal)">
    <rect fill="#1f6feb" x="0" y="1.5" width="1708" height="24.65" shape-rendering="crispEdges"/><rect fill="#1f6feb" x="0" y="25.9" width="573.4" height="24.65" shape-rendering="crispEdges"/><rect fill="#1f6feb" x="573.4" y="25.9" width="549" height="24.65" shape-rendering="crispEdges"/><rect fill="#1f6feb" x="1122.4" y="25.9" width="585.6" height="24.65" shape-rendering="crispEdges"/><rect fill="#1f6feb" x="0" y="50.3" width="1708" height="24.65" shape-rendering="crispEdges"/><rect fill="#171b21" x="0" y="74.7" width="646.6" height="24.65" shape-rendering="crispEdges"/><rect fill="#171b21" x="646.6" y="74.7" width="1037" height="24.65" shape-rendering="crispEdges"/><rect fill="#000000" x="1683.6" y="74.7" width="24.4" height="24.65" shape-rendering="crispEdges"/><rect fill="#171b21" x="0" y="99.1" width="24.4" height="24.65" shape-rendering="crispEdges"/><rect fill="#171b21" x="24.4" y="99.1" width="12.2" height="24.65" shape-rendering="crispEdges"/><rect fill="#171b21" x="36.6" y="99.1" width="366" height="24.65" shape-rendering="crispEdges"/><rect fill="#171b21" x="402.6" y="99.1" width="170.8" height="24.65" shape-rendering="crispEdges"/><rect fill="#171b21" x="573.4" y="99.1" width="24.4" height="24.65" shape-rendering="crispEdges"/><rect fill="#171b21" x="597.8" y="99.1" width="12.2" height="24.65" shape-rendering="crispEdges"/><rect fill="#171b21" x="610" y="99.1" width="12.2" height="24.65" shape-rendering="crispEdges"/><rect fill="#171b21" x="622.2" y="99.1" width="85.4" height="24.65" shape-rendering="crispEdges"/><rect fill="#171b21" x="707.6" y="99.1" width="12.2" height="24.65" shape-rendering="crispEdges"/><rect fill="#171b21" x="719.8" y="99.1" width="963.8" height="24.65" shape-rendering="crispEdges"/><rect fill="#000000" x="1683.6" y="99.1" width="24.4" height="24.65" shape-rendering="crispEdges"/><rect fill="#171b21" x="0" y="123.5" width="1683.6" height="24.65" shape-rendering="crispEdges"/><rect fill="#000000" x="1683.6" y="123.5" width="24.4" height="24.65" shape-rendering="crispEdges"/><rect fill="#272822" x="0" y="147.9" width="12.2" height="24.65" shape-rendering="crispEdges"/><rect fill="#272822" x="12.2" y="147.9" width="939.4" height="24.65" shape-rendering="crispEdges"/><rect fill="#171b21" x="951.6" y="147.9" width="732" height="24.65" shape-rendering="crispEdges"/><rect fill="#000000" x="1683.6" y="147.9" width="24.4" height="24.65" shape-rendering="crispEdges"/><rect fill="#272822" x="0" y="172.3" width="24.4" height="24.65" shape-rendering="crispEdges"/><rect fill="#272822" x="24.4" y="172.3" width="146.4" height="24.65" shape-rendering="crispEdges"/><rect fill="#272822" x="170.8" y="172.3" width="12.2" height="24.65" shape-rendering="crispEdges"/><rect fill="#272822" x="183" y="172.3" width="12.2" height="24.65" shape-rendering="crispEdges"/><rect fill="#272822" x="195.2" y="172.3" width="122" height="24.65" shape-rendering="crispEdges"/><rect fill="#272822" x="317.2" y="172.3" width="12.2" height="24.65" shape-rendering="crispEdges"/><rect fill="#272822" x="329.4" y="172.3" width="622.2" height="24.65" shape-rendering="crispEdges"/><rect fill="#171b21" x="951.6" y="172.3" width="732" height="24.65" shape-rendering="crispEdges"/><rect fill="#000000" x="1683.6" y="172.3" width="24.4" height="24.65" shape-rendering="crispEdges"/><rect fill="#272822" x="0" y="196.7" width="24.4" height="24.65" shape-rendering="crispEdges"/><rect fill="#272822" x="24.4" y="196.7" width="134.2" height="24.65" shape-rendering="crispEdges"/><rect fill="#272822" x="158.6" y="196.7" width="12.2" height="24.65" shape-rendering="crispEdges"/><rect fill="#272822" x="170.8" y="196.7" width="12.2" height="24.65" shape-rendering="crispEdges"/><rect fill="#272822" x="183" y="196.7" width="353.8" height="24.65" shape-rendering="crispEdges"/><rect fill="#272822" x="536.8" y="196.7" width="12.2" height="24.65" shape-rendering="crispEdges"/><rect fill="#272822" x="549" y="196.7" width="402.6" height="24.65" shape-rendering="crispEdges"/><rect fill="#171b21" x="951.6" y="196.7" width="732" height="24.65" shape-rendering="crispEdges"/><rect fill="#000000" x="1683.6" y="196.7" width="24.4" height="24.65" shape-rendering="crispEdges"/><rect fill="#272822" x="0" y="221.1" width="24.4" height="24.65" shape-rendering="crispEdges"/><rect fill="#272822" x="24.4" y="221.1" width="146.4" height="24.65" shape-rendering="crispEdges"/><rect fill="#272822" x="170.8" y="221.1" width="12.2" height="24.65" shape-rendering="crispEdges"/><rect fill="#272822" x="183" y="221.1" width="12.2" height="24.65" shape-rendering="crispEdges"/><rect fill="#272822" x="195.2" y="221.1" width="170.8" height="24.65" shape-rendering="crispEdges"/><rect fill="#272822" x="366" y="221.1" width="12.2" height="24.65" shape-rendering="crispEdges"/><rect fill="#272822" x="378.2" y="221.1" width="573.4" height="24.65" shape-rendering="crispEdges"/><rect fill="#171b21" x="951.6" y="221.1" width="732" height="24.65" shape-rendering="crispEdges"/><rect fill="#000000" x="1683.6" y="221.1" width="24.4" height="24.65" shape-rendering="crispEdges"/><rect fill="#272822" x="0" y="245.5" width="24.4" height="24.65" shape-rendering="crispEdges"/><rect fill="#272822" x="24.4" y="245.5" width="61" height="24.65" shape-rendering="crispEdges"/><rect fill="#272822" x="85.4" y="245.5" width="12.2" height="24.65" shape-rendering="crispEdges"/><rect fill="#272822" x="97.6" y="245.5" width="12.2" height="24.65" shape-rendering="crispEdges"/><rect fill="#272822" x="109.8" y="245.5" width="353.8" height="24.65" shape-rendering="crispEdges"/><rect fill="#272822" x="463.6" y="245.5" width="12.2" height="24.65" shape-rendering="crispEdges"/><rect fill="#272822" x="475.8" y="245.5" width="475.8" height="24.65" shape-rendering="crispEdges"/><rect fill="#171b21" x="951.6" y="245.5" width="732" height="24.65" shape-rendering="crispEdges"/><rect fill="#000000" x="1683.6" y="245.5" width="24.4" height="24.65" shape-rendering="crispEdges"/><rect fill="#272822" x="0" y="269.9" width="24.4" height="24.65" shape-rendering="crispEdges"/><rect fill="#272822" x="24.4" y="269.9" width="109.8" height="24.65" shape-rendering="crispEdges"/><rect fill="#272822" x="134.2" y="269.9" width="12.2" height="24.65" shape-rendering="crispEdges"/><rect fill="#272822" x="146.4" y="269.9" width="12.2" height="24.65" shape-rendering="crispEdges"/><rect fill="#272822" x="158.6" y="269.9" width="48.8" height="24.65" shape-rendering="crispEdges"/><rect fill="#272822" x="207.4" y="269.9" width="12.2" height="24.65" shape-rendering="crispEdges"/><rect fill="#272822" x="219.6" y="269.9" width="732" height="24.65" shape-rendering="crispEdges"/><rect fill="#171b21" x="951.6" y="269.9" width="732" height="24.65" shape-rendering="crispEdges"/><rect fill="#000000" x="1683.6" y="269.9" width="24.4" height="24.65" shape-rendering="crispEdges"/><rect fill="#272822" x="0" y="294.3" width="24.4" height="24.65" shape-rendering="crispEdges"/><rect fill="#272822" x="24.4" y="294.3" width="134.2" height="24.65" shape-rendering="crispEdges"/><rect fill="#272822" x="158.6" y="294.3" width="12.2" height="24.65" shape-rendering="crispEdges"/><rect fill="#272822" x="170.8" y="294.3" width="12.2" height="24.65" shape-rendering="crispEdges"/><rect fill="#272822" x="183" y="294.3" width="12.2" height="24.65" shape-rendering="crispEdges"/><rect fill="#272822" x="195.2" y="294.3" width="12.2" height="24.65" shape-rendering="crispEdges"/><rect fill="#272822" x="207.4" y="294.3" width="744.2" height="24.65" shape-rendering="crispEdges"/><rect fill="#171b21" x="951.6" y="294.3" width="732" height="24.65" shape-rendering="crispEdges"/><rect fill="#000000" x="1683.6" y="294.3" width="24.4" height="24.65" shape-rendering="crispEdges"/><rect fill="#272822" x="0" y="318.7" width="24.4" height="24.65" shape-rendering="crispEdges"/><rect fill="#272822" x="24.4" y="318.7" width="158.6" height="24.65" shape-rendering="crispEdges"/><rect fill="#272822" x="183" y="318.7" width="12.2" height="24.65" shape-rendering="crispEdges"/><rect fill="#272822" x="195.2" y="318.7" width="12.2" height="24.65" shape-rendering="crispEdges"/><rect fill="#272822" x="207.4" y="318.7" width="48.8" height="24.65" shape-rendering="crispEdges"/><rect fill="#272822" x="256.2" y="318.7" width="695.4" height="24.65" shape-rendering="crispEdges"/><rect fill="#171b21" x="951.6" y="318.7" width="732" height="24.65" shape-rendering="crispEdges"/><rect fill="#000000" x="1683.6" y="318.7" width="24.4" height="24.65" shape-rendering="crispEdges"/><rect fill="#272822" x="0" y="343.1" width="12.2" height="24.65" shape-rendering="crispEdges"/><rect fill="#272822" x="12.2" y="343.1" width="939.4" height="24.65" shape-rendering="crispEdges"/><rect fill="#171b21" x="951.6" y="343.1" width="732" height="24.65" shape-rendering="crispEdges"/><rect fill="#000000" x="1683.6" y="343.1" width="24.4" height="24.65" shape-rendering="crispEdges"/><rect fill="#171b21" x="0" y="367.5" width="1683.6" height="24.65" shape-rendering="crispEdges"/><rect fill="#000000" x="1683.6" y="367.5" width="24.4" height="24.65" shape-rendering="crispEdges"/><rect fill="#272822" x="0" y="391.9" width="12.2" height="24.65" shape-rendering="crispEdges"/><rect fill="#272822" x="12.2" y="391.9" width="939.4" height="24.65" shape-rendering="crispEdges"/><rect fill="#171b21" x="951.6" y="391.9" width="732" height="24.65" shape-rendering="crispEdges"/><rect fill="#000000" x="1683.6" y="391.9" width="24.4" height="24.65" shape-rendering="crispEdges"/><rect fill="#272822" x="0" y="416.3" width="24.4" height="24.65" shape-rendering="crispEdges"/><rect fill="#272822" x="24.4" y="416.3" width="146.4" height="24.65" shape-rendering="crispEdges"/><rect fill="#272822" x="170.8" y="416.3" width="12.2" height="24.65" shape-rendering="crispEdges"/><rect fill="#272822" x="183" y="416.3" width="12.2" height="24.65" shape-rendering="crispEdges"/><rect fill="#272822" x="195.2" y="416.3" width="122" height="24.65" shape-rendering="crispEdges"/><rect fill="#272822" x="317.2" y="416.3" width="12.2" height="24.65" shape-rendering="crispEdges"/><rect fill="#272822" x="329.4" y="416.3" width="622.2" height="24.65" shape-rendering="crispEdges"/><rect fill="#171b21" x="951.6" y="416.3" width="732" height="24.65" shape-rendering="crispEdges"/><rect fill="#000000" x="1683.6" y="416.3" width="24.4" height="24.65" shape-rendering="crispEdges"/><rect fill="#272822" x="0" y="440.7" width="24.4" height="24.65" shape-rendering="crispEdges"/><rect fill="#272822" x="24.4" y="440.7" width="134.2" height="24.65" shape-rendering="crispEdges"/><rect fill="#272822" x="158.6" y="440.7" width="12.2" height="24.65" shape-rendering="crispEdges"/><rect fill="#272822" x="170.8" y="440.7" width="12.2" height="24.65" shape-rendering="crispEdges"/><rect fill="#272822" x="183" y="440.7" width="353.8" height="24.65" shape-rendering="crispEdges"/><rect fill="#272822" x="536.8" y="440.7" width="12.2" height="24.65" shape-rendering="crispEdges"/><rect fill="#272822" x="549" y="440.7" width="402.6" height="24.65" shape-rendering="crispEdges"/><rect fill="#171b21" x="951.6" y="440.7" width="732" height="24.65" shape-rendering="crispEdges"/><rect fill="#000000" x="1683.6" y="440.7" width="24.4" height="24.65" shape-rendering="crispEdges"/><rect fill="#272822" x="0" y="465.1" width="24.4" height="24.65" shape-rendering="crispEdges"/><rect fill="#272822" x="24.4" y="465.1" width="146.4" height="24.65" shape-rendering="crispEdges"/><rect fill="#272822" x="170.8" y="465.1" width="12.2" height="24.65" shape-rendering="crispEdges"/><rect fill="#272822" x="183" y="465.1" width="12.2" height="24.65" shape-rendering="crispEdges"/><rect fill="#272822" x="195.2" y="465.1" width="183" height="24.65" shape-rendering="crispEdges"/><rect fill="#272822" x="378.2" y="465.1" width="12.2" height="24.65" shape-rendering="crispEdges"/><rect fill="#272822" x="390.4" y="465.1" width="561.2" height="24.65" shape-rendering="crispEdges"/><rect fill="#171b21" x="951.6" y="465.1" width="732" height="24.65" shape-rendering="crispEdges"/><rect fill="#000000" x="1683.6" y="465.1" width="24.4" height="24.65" shape-rendering="crispEdges"/><rect fill="#272822" x="0" y="489.5" width="24.4" height="24.65" shape-rendering="crispEdges"/><rect fill="#272822" x="24.4" y="489.5" width="73.2" height="24.65" shape-rendering="crispEdges"/><rect fill="#272822" x="97.6" y="489.5" width="12.2" height="24.65" shape-rendering="crispEdges"/><rect fill="#272822" x="109.8" y="489.5" width="12.2" height="24.65" shape-rendering="crispEdges"/><rect fill="#272822" x="122" y="489.5" width="378.2" height="24.65" shape-rendering="crispEdges"/><rect fill="#272822" x="500.2" y="489.5" width="451.4" height="24.65" shape-rendering="crispEdges"/><rect fill="#171b21" x="951.6" y="489.5" width="732" height="24.65" shape-rendering="crispEdges"/><rect fill="#000000" x="1683.6" y="489.5" width="24.4" height="24.65" shape-rendering="crispEdges"/><rect fill="#272822" x="0" y="513.9" width="12.2" height="24.65" shape-rendering="crispEdges"/><rect fill="#272822" x="12.2" y="513.9" width="939.4" height="24.65" shape-rendering="crispEdges"/><rect fill="#171b21" x="951.6" y="513.9" width="732" height="24.65" shape-rendering="crispEdges"/><rect fill="#000000" x="1683.6" y="513.9" width="24.4" height="24.65" shape-rendering="crispEdges"/><rect fill="#171b21" x="0" y="538.3" width="1683.6" height="24.65" shape-rendering="crispEdges"/><rect fill="#000000" x="1683.6" y="538.3" width="24.4" height="24.65" shape-rendering="crispEdges"/><rect fill="#272822" x="0" y="562.7" width="12.2" height="24.65" shape-rendering="crispEdges"/><rect fill="#272822" x="12.2" y="562.7" width="939.4" height="24.65" shape-rendering="crispEdges"/><rect fill="#171b21" x="951.6" y="562.7" width="732" height="24.65" shape-rendering="crispEdges"/><rect fill="#000000" x="1683.6" y="562.7" width="24.4" height="24.65" shape-rendering="crispEdges"/><rect fill="#272822" x="0" y="587.1" width="24.4" height="24.65" shape-rendering="crispEdges"/><rect fill="#272822" x="24.4" y="587.1" width="146.4" height="24.65" shape-rendering="crispEdges"/><rect fill="#272822" x="170.8" y="587.1" width="12.2" height="24.65" shape-rendering="crispEdges"/><rect fill="#272822" x="183" y="587.1" width="12.2" height="24.65" shape-rendering="crispEdges"/><rect fill="#272822" x="195.2" y="587.1" width="122" height="24.65" shape-rendering="crispEdges"/><rect fill="#272822" x="317.2" y="587.1" width="12.2" height="24.65" shape-rendering="crispEdges"/><rect fill="#272822" x="329.4" y="587.1" width="622.2" height="24.65" shape-rendering="crispEdges"/><rect fill="#171b21" x="951.6" y="587.1" width="732" height="24.65" shape-rendering="crispEdges"/><rect fill="#000000" x="1683.6" y="587.1" width="24.4" height="24.65" shape-rendering="crispEdges"/><rect fill="#272822" x="0" y="611.5" width="24.4" height="24.65" shape-rendering="crispEdges"/><rect fill="#272822" x="24.4" y="611.5" width="134.2" height="24.65" shape-rendering="crispEdges"/><rect fill="#272822" x="158.6" y="611.5" width="12.2" height="24.65" shape-rendering="crispEdges"/><rect fill="#272822" x="170.8" y="611.5" width="12.2" height="24.65" shape-rendering="crispEdges"/><rect fill="#272822" x="183" y="611.5" width="353.8" height="24.65" shape-rendering="crispEdges"/><rect fill="#272822" x="536.8" y="611.5" width="12.2" height="24.65" shape-rendering="crispEdges"/><rect fill="#272822" x="549" y="611.5" width="402.6" height="24.65" shape-rendering="crispEdges"/><rect fill="#171b21" x="951.6" y="611.5" width="732" height="24.65" shape-rendering="crispEdges"/><rect fill="#000000" x="1683.6" y="611.5" width="24.4" height="24.65" shape-rendering="crispEdges"/><rect fill="#272822" x="0" y="635.9" width="24.4" height="24.65" shape-rendering="crispEdges"/><rect fill="#272822" x="24.4" y="635.9" width="146.4" height="24.65" shape-rendering="crispEdges"/><rect fill="#272822" x="170.8" y="635.9" width="12.2" height="24.65" shape-rendering="crispEdges"/><rect fill="#272822" x="183" y="635.9" width="12.2" height="24.65" shape-rendering="crispEdges"/><rect fill="#272822" x="195.2" y="635.9" width="134.2" height="24.65" shape-rendering="crispEdges"/><rect fill="#272822" x="329.4" y="635.9" width="12.2" height="24.65" shape-rendering="crispEdges"/><rect fill="#272822" x="341.6" y="635.9" width="610" height="24.65" shape-rendering="crispEdges"/><rect fill="#171b21" x="951.6" y="635.9" width="732" height="24.65" shape-rendering="crispEdges"/><rect fill="#000000" x="1683.6" y="635.9" width="24.4" height="24.65" shape-rendering="crispEdges"/><rect fill="#272822" x="0" y="660.3" width="24.4" height="24.65" shape-rendering="crispEdges"/><rect fill="#272822" x="24.4" y="660.3" width="134.2" height="24.65" shape-rendering="crispEdges"/><rect fill="#272822" x="158.6" y="660.3" width="12.2" height="24.65" shape-rendering="crispEdges"/><rect fill="#272822" x="170.8" y="660.3" width="12.2" height="24.65" shape-rendering="crispEdges"/><rect fill="#272822" x="183" y="660.3" width="158.6" height="24.65" shape-rendering="crispEdges"/><rect fill="#272822" x="341.6" y="660.3" width="12.2" height="24.65" shape-rendering="crispEdges"/><rect fill="#272822" x="353.8" y="660.3" width="597.8" height="24.65" shape-rendering="crispEdges"/><rect fill="#171b21" x="951.6" y="660.3" width="732" height="24.65" shape-rendering="crispEdges"/><rect fill="#000000" x="1683.6" y="660.3" width="24.4" height="24.65" shape-rendering="crispEdges"/><rect fill="#272822" x="0" y="684.7" width="24.4" height="24.65" shape-rendering="crispEdges"/><rect fill="#272822" x="24.4" y="684.7" width="73.2" height="24.65" shape-rendering="crispEdges"/><rect fill="#272822" x="97.6" y="684.7" width="12.2" height="24.65" shape-rendering="crispEdges"/><rect fill="#272822" x="109.8" y="684.7" width="12.2" height="24.65" shape-rendering="crispEdges"/><rect fill="#272822" x="122" y="684.7" width="24.4" height="24.65" shape-rendering="crispEdges"/><rect fill="#272822" x="146.4" y="684.7" width="805.2" height="24.65" shape-rendering="crispEdges"/><rect fill="#171b21" x="951.6" y="684.7" width="732" height="24.65" shape-rendering="crispEdges"/><rect fill="#000000" x="1683.6" y="684.7" width="24.4" height="24.65" shape-rendering="crispEdges"/><rect fill="#272822" x="0" y="709.1" width="12.2" height="24.65" shape-rendering="crispEdges"/><rect fill="#272822" x="12.2" y="709.1" width="939.4" height="24.65" shape-rendering="crispEdges"/><rect fill="#171b21" x="951.6" y="709.1" width="732" height="24.65" shape-rendering="crispEdges"/><rect fill="#000000" x="1683.6" y="709.1" width="24.4" height="24.65" shape-rendering="crispEdges"/><rect fill="#171b21" x="0" y="733.5" width="1683.6" height="24.65" shape-rendering="crispEdges"/><rect fill="#000000" x="1683.6" y="733.5" width="24.4" height="24.65" shape-rendering="crispEdges"/><rect fill="#171b21" x="0" y="757.9" width="1683.6" height="24.65" shape-rendering="crispEdges"/><rect fill="#000000" x="1683.6" y="757.9" width="24.4" height="24.65" shape-rendering="crispEdges"/><rect fill="#171b21" x="0" y="782.3" width="1683.6" height="24.65" shape-rendering="crispEdges"/><rect fill="#000000" x="1683.6" y="782.3" width="24.4" height="24.65" shape-rendering="crispEdges"/><rect fill="#171b21" x="0" y="806.7" width="1683.6" height="24.65" shape-rendering="crispEdges"/><rect fill="#000000" x="1683.6" y="806.7" width="24.4" height="24.65" shape-rendering="crispEdges"/><rect fill="#171b21" x="0" y="831.1" width="1683.6" height="24.65" shape-rendering="crispEdges"/><rect fill="#000000" x="1683.6" y="831.1" width="24.4" height="24.65" shape-rendering="crispEdges"/><rect fill="#171b21" x="0" y="855.5" width="1683.6" height="24.65" shape-rendering="crispEdges"/><rect fill="#000000" x="1683.6" y="855.5" width="24.4" height="24.65" shape-rendering="crispEdges"/><rect fill="#171b21" x="0" y="879.9" width="1683.6" height="24.65" shape-rendering="crispEdges"/><rect fill="#000000" x="1683.6" y="879.9" width="24.4" height="24.65" shape-rendering="crispEdges"/><rect fill="#171b21" x="0" y="904.3" width="1683.6" height="24.65" shape-rendering="crispEdges"/><rect fill="#000000" x="1683.6" y="904.3" width="24.4" height="24.65" shape-rendering="crispEdges"/><rect fill="#171b21" x="0" y="928.7" width="1683.6" height="24.65" shape-rendering="crispEdges"/><rect fill="#000000" x="1683.6" y="928.7" width="24.4" height="24.65" shape-rendering="crispEdges"/><rect fill="#171b21" x="0" y="953.1" width="1683.6" height="24.65" shape-rendering="crispEdges"/><rect fill="#000000" x="1683.6" y="953.1" width="24.4" height="24.65" shape-rendering="crispEdges"/><rect fill="#171b21" x="0" y="977.5" width="1683.6" height="24.65" shape-rendering="crispEdges"/><rect fill="#000000" x="1683.6" y="977.5" width="24.4" height="24.65" shape-rendering="crispEdges"/><rect fill="#171b21" x="0" y="1001.9" width="1683.6" height="24.65" shape-rendering="crispEdges"/><rect fill="#000000" x="1683.6" y="1001.9" width="24.4" height="24.65" shape-rendering="crispEdges"/>
    <g class="terminal-1769497412-matrix">
    <text class="terminal-1769497412-r2" x="1708" y="20" textLength="12.2" clip-path="url(#terminal-1769497412-line-0)">
</text><text class="terminal-1769497412-r1" x="573.4" y="44.4" textLength="549" clip-path="url(#terminal-1769497412-line-1)">&#160;&#160;LabRat&#160;&#160;·&#160;&#160;M19&#160;·&#160;Audit&#160;Log&#160;/&#160;Event&#160;Sourcing</text><text class="terminal-1769497412-r2" x="1708" y="44.4" textLength="12.2" clip-path="url(#terminal-1769497412-line-1)">
</text><text class="terminal-1769497412-r2" x="1708" y="68.8" textLength="12.2" clip-path="url(#terminal-1769497412-line-2)">
</text><text class="terminal-1769497412-r3" x="0" y="93.2" textLength="646.6" clip-path="url(#terminal-1769497412-line-3)">AuditLog&#160;—&#160;JSONL&#160;event&#160;sourcing,&#160;one&#160;file&#160;per&#160;session</text><text class="terminal-1769497412-r2" x="1708" y="93.2" textLength="12.2" clip-path="url(#terminal-1769497412-line-3)">
</text><text class="terminal-1769497412-r5" x="24.4" y="117.6" textLength="12.2" clip-path="url(#terminal-1769497412-line-4)">~</text><text class="terminal-1769497412-r6" x="36.6" y="117.6" textLength="366" clip-path="url(#terminal-1769497412-line-4)">/.local/share/labrat/sessions/</text><text class="terminal-1769497412-r6" x="402.6" y="117.6" textLength="170.8" clip-path="url(#terminal-1769497412-line-4)">sess-001.jsonl</text><text class="terminal-1769497412-r7" x="597.8" y="117.6" textLength="12.2" clip-path="url(#terminal-1769497412-line-4)">(</text><text class="terminal-1769497412-r8" x="610" y="117.6" textLength="12.2" clip-path="url(#terminal-1769497412-line-4)">3</text><text class="terminal-1769497412-r5" x="622.2" y="117.6" textLength="85.4" clip-path="url(#terminal-1769497412-line-4)">&#160;events</text><text class="terminal-1769497412-r7" x="707.6" y="117.6" textLength="12.2" clip-path="url(#terminal-1769497412-line-4)">)</text><text class="terminal-1769497412-r2" x="1708" y="117.6" textLength="12.2" clip-path="url(#terminal-1769497412-line-4)">
</text><text class="terminal-1769497412-r2" x="1708" y="142" textLength="12.2" clip-path="url(#terminal-1769497412-line-5)">
</text><text class="terminal-1769497412-r9" x="0" y="166.4" textLength="12.2" clip-path="url(#terminal-1769497412-line-6)">{</text><text class="terminal-1769497412-r2" x="1708" y="166.4" textLength="12.2" clip-path="url(#terminal-1769497412-line-6)">
</text><text class="terminal-1769497412-r10" x="24.4" y="190.8" textLength="146.4" clip-path="url(#terminal-1769497412-line-7)">&quot;session_id&quot;</text><text class="terminal-1769497412-r9" x="170.8" y="190.8" textLength="12.2" clip-path="url(#terminal-1769497412-line-7)">:</text><text class="terminal-1769497412-r11" x="195.2" y="190.8" textLength="122" clip-path="url(#terminal-1769497412-line-7)">&quot;sess-001&quot;</text><text class="terminal-1769497412-r9" x="317.2" y="190.8" textLength="12.2" clip-path="url(#terminal-1769497412-line-7)">,</text><text class="terminal-1769497412-r2" x="1708" y="190.8" textLength="12.2" clip-path="url(#terminal-1769497412-line-7)">
</text><text class="terminal-1769497412-r10" x="24.4" y="215.2" textLength="134.2" clip-path="url(#terminal-1769497412-line-8)">&quot;timestamp&quot;</text><text class="terminal-1769497412-r9" x="158.6" y="215.2" textLength="12.2" clip-path="url(#terminal-1769497412-line-8)">:</text><text class="terminal-1769497412-r11" x="183" y="215.2" textLength="353.8" clip-path="url(#terminal-1769497412-line-8)">&quot;2026-05-24T18:14:16.023415Z&quot;</text><text class="terminal-1769497412-r9" x="536.8" y="215.2" textLength="12.2" clip-path="url(#terminal-1769497412-line-8)">,</text><text class="terminal-1769497412-r2" x="1708" y="215.2" textLength="12.2" clip-path="url(#terminal-1769497412-line-8)">
</text><text class="terminal-1769497412-r10" x="24.4" y="239.6" textLength="146.4" clip-path="url(#terminal-1769497412-line-9)">&quot;event_type&quot;</text><text class="terminal-1769497412-r9" x="170.8" y="239.6" textLength="12.2" clip-path="url(#terminal-1769497412-line-9)">:</text><text class="terminal-1769497412-r11" x="195.2" y="239.6" textLength="170.8" clip-path="url(#terminal-1769497412-line-9)">&quot;sql_executed&quot;</text><text class="terminal-1769497412-r9" x="366" y="239.6" textLength="12.2" clip-path="url(#terminal-1769497412-line-9)">,</text><text class="terminal-1769497412-r2" x="1708" y="239.6" textLength="12.2" clip-path="url(#terminal-1769497412-line-9)">
</text><text class="terminal-1769497412-r10" x="24.4" y="264" textLength="61" clip-path="url(#terminal-1769497412-line-10)">&quot;sql&quot;</text><text class="terminal-1769497412-r9" x="85.4" y="264" textLength="12.2" clip-path="url(#terminal-1769497412-line-10)">:</text><text class="terminal-1769497412-r11" x="109.8" y="264" textLength="353.8" clip-path="url(#terminal-1769497412-line-10)">&quot;SELECT&#160;COUNT(*)&#160;FROM&#160;orders&quot;</text><text class="terminal-1769497412-r9" x="463.6" y="264" textLength="12.2" clip-path="url(#terminal-1769497412-line-10)">,</text><text class="terminal-1769497412-r2" x="1708" y="264" textLength="12.2" clip-path="url(#terminal-1769497412-line-10)">
</text><text class="terminal-1769497412-r10" x="24.4" y="288.4" textLength="109.8" clip-path="url(#terminal-1769497412-line-11)">&quot;success&quot;</text><text class="terminal-1769497412-r9" x="134.2" y="288.4" textLength="12.2" clip-path="url(#terminal-1769497412-line-11)">:</text><text class="terminal-1769497412-r12" x="158.6" y="288.4" textLength="48.8" clip-path="url(#terminal-1769497412-line-11)">true</text><text class="terminal-1769497412-r9" x="207.4" y="288.4" textLength="12.2" clip-path="url(#terminal-1769497412-line-11)">,</text><text class="terminal-1769497412-r2" x="1708" y="288.4" textLength="12.2" clip-path="url(#terminal-1769497412-line-11)">
</text><text class="terminal-1769497412-r10" x="24.4" y="312.8" textLength="134.2" clip-path="url(#terminal-1769497412-line-12)">&quot;row_count&quot;</text><text class="terminal-1769497412-r9" x="158.6" y="312.8" textLength="12.2" clip-path="url(#terminal-1769497412-line-12)">:</text><text class="terminal-1769497412-r13" x="183" y="312.8" textLength="12.2" clip-path="url(#terminal-1769497412-line-12)">1</text><text class="terminal-1769497412-r9" x="195.2" y="312.8" textLength="12.2" clip-path="url(#terminal-1769497412-line-12)">,</text><text class="terminal-1769497412-r2" x="1708" y="312.8" textLength="12.2" clip-path="url(#terminal-1769497412-line-12)">
</text><text class="terminal-1769497412-r10" x="24.4" y="337.2" textLength="158.6" clip-path="url(#terminal-1769497412-line-13)">&quot;results_ref&quot;</text><text class="terminal-1769497412-r9" x="183" y="337.2" textLength="12.2" clip-path="url(#terminal-1769497412-line-13)">:</text><text class="terminal-1769497412-r12" x="207.4" y="337.2" textLength="48.8" clip-path="url(#terminal-1769497412-line-13)">null</text><text class="terminal-1769497412-r2" x="1708" y="337.2" textLength="12.2" clip-path="url(#terminal-1769497412-line-13)">
</text><text class="terminal-1769497412-r9" x="0" y="361.6" textLength="12.2" clip-path="url(#terminal-1769497412-line-14)">}</text><text class="terminal-1769497412-r2" x="1708" y="361.6" textLength="12.2" clip-path="url(#terminal-1769497412-line-14)">
</text><text class="terminal-1769497412-r2" x="1708" y="386" textLength="12.2" clip-path="url(#terminal-1769497412-line-15)">
</text><text class="terminal-1769497412-r9" x="0" y="410.4" textLength="12.2" clip-path="url(#terminal-1769497412-line-16)">{</text><text class="terminal-1769497412-r2" x="1708" y="410.4" textLength="12.2" clip-path="url(#terminal-1769497412-line-16)">
</text><text class="terminal-1769497412-r10" x="24.4" y="434.8" textLength="146.4" clip-path="url(#terminal-1769497412-line-17)">&quot;session_id&quot;</text><text class="terminal-1769497412-r9" x="170.8" y="434.8" textLength="12.2" clip-path="url(#terminal-1769497412-line-17)">:</text><text class="terminal-1769497412-r11" x="195.2" y="434.8" textLength="122" clip-path="url(#terminal-1769497412-line-17)">&quot;sess-001&quot;</text><text class="terminal-1769497412-r9" x="317.2" y="434.8" textLength="12.2" clip-path="url(#terminal-1769497412-line-17)">,</text><text class="terminal-1769497412-r2" x="1708" y="434.8" textLength="12.2" clip-path="url(#terminal-1769497412-line-17)">
</text><text class="terminal-1769497412-r10" x="24.4" y="459.2" textLength="134.2" clip-path="url(#terminal-1769497412-line-18)">&quot;timestamp&quot;</text><text class="terminal-1769497412-r9" x="158.6" y="459.2" textLength="12.2" clip-path="url(#terminal-1769497412-line-18)">:</text><text class="terminal-1769497412-r11" x="183" y="459.2" textLength="353.8" clip-path="url(#terminal-1769497412-line-18)">&quot;2026-05-24T18:14:16.023583Z&quot;</text><text class="terminal-1769497412-r9" x="536.8" y="459.2" textLength="12.2" clip-path="url(#terminal-1769497412-line-18)">,</text><text class="terminal-1769497412-r2" x="1708" y="459.2" textLength="12.2" clip-path="url(#terminal-1769497412-line-18)">
</text><text class="terminal-1769497412-r10" x="24.4" y="483.6" textLength="146.4" clip-path="url(#terminal-1769497412-line-19)">&quot;event_type&quot;</text><text class="terminal-1769497412-r9" x="170.8" y="483.6" textLength="12.2" clip-path="url(#terminal-1769497412-line-19)">:</text><text class="terminal-1769497412-r11" x="195.2" y="483.6" textLength="183" clip-path="url(#terminal-1769497412-line-19)">&quot;agent_message&quot;</text><text class="terminal-1769497412-r9" x="378.2" y="483.6" textLength="12.2" clip-path="url(#terminal-1769497412-line-19)">,</text><text class="terminal-1769497412-r2" x="1708" y="483.6" textLength="12.2" clip-path="url(#terminal-1769497412-line-19)">
</text><text class="terminal-1769497412-r10" x="24.4" y="508" textLength="73.2" clip-path="url(#terminal-1769497412-line-20)">&quot;text&quot;</text><text class="terminal-1769497412-r9" x="97.6" y="508" textLength="12.2" clip-path="url(#terminal-1769497412-line-20)">:</text><text class="terminal-1769497412-r11" x="122" y="508" textLength="378.2" clip-path="url(#terminal-1769497412-line-20)">&quot;The&#160;orders&#160;table&#160;has&#160;42&#160;rows.&quot;</text><text class="terminal-1769497412-r2" x="1708" y="508" textLength="12.2" clip-path="url(#terminal-1769497412-line-20)">
</text><text class="terminal-1769497412-r9" x="0" y="532.4" textLength="12.2" clip-path="url(#terminal-1769497412-line-21)">}</text><text class="terminal-1769497412-r2" x="1708" y="532.4" textLength="12.2" clip-path="url(#terminal-1769497412-line-21)">
</text><text class="terminal-1769497412-r2" x="1708" y="556.8" textLength="12.2" clip-path="url(#terminal-1769497412-line-22)">
</text><text class="terminal-1769497412-r9" x="0" y="581.2" textLength="12.2" clip-path="url(#terminal-1769497412-line-23)">{</text><text class="terminal-1769497412-r2" x="1708" y="581.2" textLength="12.2" clip-path="url(#terminal-1769497412-line-23)">
</text><text class="terminal-1769497412-r10" x="24.4" y="605.6" textLength="146.4" clip-path="url(#terminal-1769497412-line-24)">&quot;session_id&quot;</text><text class="terminal-1769497412-r9" x="170.8" y="605.6" textLength="12.2" clip-path="url(#terminal-1769497412-line-24)">:</text><text class="terminal-1769497412-r11" x="195.2" y="605.6" textLength="122" clip-path="url(#terminal-1769497412-line-24)">&quot;sess-001&quot;</text><text class="terminal-1769497412-r9" x="317.2" y="605.6" textLength="12.2" clip-path="url(#terminal-1769497412-line-24)">,</text><text class="terminal-1769497412-r2" x="1708" y="605.6" textLength="12.2" clip-path="url(#terminal-1769497412-line-24)">
</text><text class="terminal-1769497412-r10" x="24.4" y="630" textLength="134.2" clip-path="url(#terminal-1769497412-line-25)">&quot;timestamp&quot;</text><text class="terminal-1769497412-r9" x="158.6" y="630" textLength="12.2" clip-path="url(#terminal-1769497412-line-25)">:</text><text class="terminal-1769497412-r11" x="183" y="630" textLength="353.8" clip-path="url(#terminal-1769497412-line-25)">&quot;2026-05-24T18:14:16.023642Z&quot;</text><text class="terminal-1769497412-r9" x="536.8" y="630" textLength="12.2" clip-path="url(#terminal-1769497412-line-25)">,</text><text class="terminal-1769497412-r2" x="1708" y="630" textLength="12.2" clip-path="url(#terminal-1769497412-line-25)">
</text><text class="terminal-1769497412-r10" x="24.4" y="654.4" textLength="146.4" clip-path="url(#terminal-1769497412-line-26)">&quot;event_type&quot;</text><text class="terminal-1769497412-r9" x="170.8" y="654.4" textLength="12.2" clip-path="url(#terminal-1769497412-line-26)">:</text><text class="terminal-1769497412-r11" x="195.2" y="654.4" textLength="134.2" clip-path="url(#terminal-1769497412-line-26)">&quot;tool_call&quot;</text><text class="terminal-1769497412-r9" x="329.4" y="654.4" textLength="12.2" clip-path="url(#terminal-1769497412-line-26)">,</text><text class="terminal-1769497412-r2" x="1708" y="654.4" textLength="12.2" clip-path="url(#terminal-1769497412-line-26)">
</text><text class="terminal-1769497412-r10" x="24.4" y="678.8" textLength="134.2" clip-path="url(#terminal-1769497412-line-27)">&quot;tool_name&quot;</text><text class="terminal-1769497412-r9" x="158.6" y="678.8" textLength="12.2" clip-path="url(#terminal-1769497412-line-27)">:</text><text class="terminal-1769497412-r11" x="183" y="678.8" textLength="158.6" clip-path="url(#terminal-1769497412-line-27)">&quot;list_tables&quot;</text><text class="terminal-1769497412-r9" x="341.6" y="678.8" textLength="12.2" clip-path="url(#terminal-1769497412-line-27)">,</text><text class="terminal-1769497412-r2" x="1708" y="678.8" textLength="12.2" clip-path="url(#terminal-1769497412-line-27)">
</text><text class="terminal-1769497412-r10" x="24.4" y="703.2" textLength="73.2" clip-path="url(#terminal-1769497412-line-28)">&quot;args&quot;</text><text class="terminal-1769497412-r9" x="97.6" y="703.2" textLength="12.2" clip-path="url(#terminal-1769497412-line-28)">:</text><text class="terminal-1769497412-r9" x="122" y="703.2" textLength="24.4" clip-path="url(#terminal-1769497412-line-28)">{}</text><text class="terminal-1769497412-r2" x="1708" y="703.2" textLength="12.2" clip-path="url(#terminal-1769497412-line-28)">
</text><text class="terminal-1769497412-r9" x="0" y="727.6" textLength="12.2" clip-path="url(#terminal-1769497412-line-29)">}</text><text class="terminal-1769497412-r2" x="1708" y="727.6" textLength="12.2" clip-path="url(#terminal-1769497412-line-29)">
</text><text class="terminal-1769497412-r2" x="1708" y="752" textLength="12.2" clip-path="url(#terminal-1769497412-line-30)">
</text><text class="terminal-1769497412-r2" x="1708" y="776.4" textLength="12.2" clip-path="url(#terminal-1769497412-line-31)">
</text><text class="terminal-1769497412-r2" x="1708" y="800.8" textLength="12.2" clip-path="url(#terminal-1769497412-line-32)">
</text><text class="terminal-1769497412-r2" x="1708" y="825.2" textLength="12.2" clip-path="url(#terminal-1769497412-line-33)">
</text><text class="terminal-1769497412-r2" x="1708" y="849.6" textLength="12.2" clip-path="url(#terminal-1769497412-line-34)">
</text><text class="terminal-1769497412-r2" x="1708" y="874" textLength="12.2" clip-path="url(#terminal-1769497412-line-35)">
</text><text class="terminal-1769497412-r2" x="1708" y="898.4" textLength="12.2" clip-path="url(#terminal-1769497412-line-36)">
</text><text class="terminal-1769497412-r2" x="1708" y="922.8" textLength="12.2" clip-path="url(#terminal-1769497412-line-37)">
</text><text class="terminal-1769497412-r2" x="1708" y="947.2" textLength="12.2" clip-path="url(#terminal-1769497412-line-38)">
</text><text class="terminal-1769497412-r2" x="1708" y="971.6" textLength="12.2" clip-path="url(#terminal-1769497412-line-39)">
</text><text class="terminal-1769497412-r2" x="1708" y="996" textLength="12.2" clip-path="url(#terminal-1769497412-line-40)">
</text>
    </g>
    </g>
</svg>
