<svg class="rich-terminal" viewBox="0 0 1726 1074.8" xmlns="http://www.w3.org/2000/svg">
    <!-- Generated with Rich https://www.textualize.io -->
    <style>

    @font-face {
        font-family: "Fira Code";
        src: local("FiraCode-Regular"),
                url("https://cdnjs.cloudflare.com/ajax/libs/firacode/6.2.0/woff2/FiraCode-Regular.woff2") format("woff2"),
                url("https://cdnjs.cloudflare.com/ajax/libs/firacode/6.2.0/woff/FiraCode-Regular.woff") format("woff");
        font-style: normal;
        font-weight: 400;
    }
    @font-face {
        font-family: "Fira Code";
        src: local("FiraCode-Bold"),
                url("https://cdnjs.cloudflare.com/ajax/libs/firacode/6.2.0/woff2/FiraCode-Bold.woff2") format("woff2"),
                url("https://cdnjs.cloudflare.com/ajax/libs/firacode/6.2.0/woff/FiraCode-Bold.woff") format("woff");
        font-style: bold;
        font-weight: 700;
    }

    .terminal-452739784-matrix {
        font-family: Fira Code, monospace;
        font-size: 20px;
        line-height: 24.4px;
        font-variant-east-asian: full-width;
    }

    .terminal-452739784-title {
        font-size: 18px;
        font-weight: bold;
        font-family: arial;
    }

    .terminal-452739784-r1 { fill: #ffffff;font-weight: bold }
.terminal-452739784-r2 { fill: #c5c8c6 }
.terminal-452739784-r3 { fill: #f4005f;font-weight: bold }
.terminal-452739784-r4 { fill: #58d1eb;font-weight: bold }
.terminal-452739784-r5 { fill: #e0e0e0 }
.terminal-452739784-r6 { fill: #9b9d9f }
.terminal-452739784-r7 { fill: #6c9d22 }
    </style>

    <defs>
    <clipPath id="terminal-452739784-clip-terminal">
      <rect x="0" y="0" width="1707.0" height="1023.8" />
    </clipPath>
    <clipPath id="terminal-452739784-line-0">
    <rect x="0" y="1.5" width="1708" height="24.65"/>
            </clipPath>
<clipPath id="terminal-452739784-line-1">
    <rect x="0" y="25.9" width="1708" height="24.65"/>
            </clipPath>
<clipPath id="terminal-452739784-line-2">
    <rect x="0" y="50.3" width="1708" height="24.65"/>
            </clipPath>
<clipPath id="terminal-452739784-line-3">
    <rect x="0" y="74.7" width="1708" height="24.65"/>
            </clipPath>
<clipPath id="terminal-452739784-line-4">
    <rect x="0" y="99.1" width="1708" height="24.65"/>
            </clipPath>
<clipPath id="terminal-452739784-line-5">
    <rect x="0" y="123.5" width="1708" height="24.65"/>
            </clipPath>
<clipPath id="terminal-452739784-line-6">
    <rect x="0" y="147.9" width="1708" height="24.65"/>
            </clipPath>
<clipPath id="terminal-452739784-line-7">
    <rect x="0" y="172.3" width="1708" height="24.65"/>
            </clipPath>
<clipPath id="terminal-452739784-line-8">
    <rect x="0" y="196.7" width="1708" height="24.65"/>
            </clipPath>
<clipPath id="terminal-452739784-line-9">
    <rect x="0" y="221.1" width="1708" height="24.65"/>
            </clipPath>
<clipPath id="terminal-452739784-line-10">
    <rect x="0" y="245.5" width="1708" height="24.65"/>
            </clipPath>
<clipPath id="terminal-452739784-line-11">
    <rect x="0" y="269.9" width="1708" height="24.65"/>
            </clipPath>
<clipPath id="terminal-452739784-line-12">
    <rect x="0" y="294.3" width="1708" height="24.65"/>
            </clipPath>
<clipPath id="terminal-452739784-line-13">
    <rect x="0" y="318.7" width="1708" height="24.65"/>
            </clipPath>
<clipPath id="terminal-452739784-line-14">
    <rect x="0" y="343.1" width="1708" height="24.65"/>
            </clipPath>
<clipPath id="terminal-452739784-line-15">
    <rect x="0" y="367.5" width="1708" height="24.65"/>
            </clipPath>
<clipPath id="terminal-452739784-line-16">
    <rect x="0" y="391.9" width="1708" height="24.65"/>
            </clipPath>
<clipPath id="terminal-452739784-line-17">
    <rect x="0" y="416.3" width="1708" height="24.65"/>
            </clipPath>
<clipPath id="terminal-452739784-line-18">
    <rect x="0" y="440.7" width="1708" height="24.65"/>
            </clipPath>
<clipPath id="terminal-452739784-line-19">
    <rect x="0" y="465.1" width="1708" height="24.65"/>
            </clipPath>
<clipPath id="terminal-452739784-line-20">
    <rect x="0" y="489.5" width="1708" height="24.65"/>
            </clipPath>
<clipPath id="terminal-452739784-line-21">
    <rect x="0" y="513.9" width="1708" height="24.65"/>
            </clipPath>
<clipPath id="terminal-452739784-line-22">
    <rect x="0" y="538.3" width="1708" height="24.65"/>
            </clipPath>
<clipPath id="terminal-452739784-line-23">
    <rect x="0" y="562.7" width="1708" height="24.65"/>
            </clipPath>
<clipPath id="terminal-452739784-line-24">
    <rect x="0" y="587.1" width="1708" height="24.65"/>
            </clipPath>
<clipPath id="terminal-452739784-line-25">
    <rect x="0" y="611.5" width="1708" height="24.65"/>
            </clipPath>
<clipPath id="terminal-452739784-line-26">
    <rect x="0" y="635.9" width="1708" height="24.65"/>
            </clipPath>
<clipPath id="terminal-452739784-line-27">
    <rect x="0" y="660.3" width="1708" height="24.65"/>
            </clipPath>
<clipPath id="terminal-452739784-line-28">
    <rect x="0" y="684.7" width="1708" height="24.65"/>
            </clipPath>
<clipPath id="terminal-452739784-line-29">
    <rect x="0" y="709.1" width="1708" height="24.65"/>
            </clipPath>
<clipPath id="terminal-452739784-line-30">
    <rect x="0" y="733.5" width="1708" height="24.65"/>
            </clipPath>
<clipPath id="terminal-452739784-line-31">
    <rect x="0" y="757.9" width="1708" height="24.65"/>
            </clipPath>
<clipPath id="terminal-452739784-line-32">
    <rect x="0" y="782.3" width="1708" height="24.65"/>
            </clipPath>
<clipPath id="terminal-452739784-line-33">
    <rect x="0" y="806.7" width="1708" height="24.65"/>
            </clipPath>
<clipPath id="terminal-452739784-line-34">
    <rect x="0" y="831.1" width="1708" height="24.65"/>
            </clipPath>
<clipPath id="terminal-452739784-line-35">
    <rect x="0" y="855.5" width="1708" height="24.65"/>
            </clipPath>
<clipPath id="terminal-452739784-line-36">
    <rect x="0" y="879.9" width="1708" height="24.65"/>
            </clipPath>
<clipPath id="terminal-452739784-line-37">
    <rect x="0" y="904.3" width="1708" height="24.65"/>
            </clipPath>
<clipPath id="terminal-452739784-line-38">
    <rect x="0" y="928.7" width="1708" height="24.65"/>
            </clipPath>
<clipPath id="terminal-452739784-line-39">
    <rect x="0" y="953.1" width="1708" height="24.65"/>
            </clipPath>
<clipPath id="terminal-452739784-line-40">
    <rect x="0" y="977.5" width="1708" height="24.65"/>
            </clipPath>
    </defs>

    <rect fill="#292929" stroke="rgba(255,255,255,0.35)" stroke-width="1" x="1" y="1" width="1724" height="1072.8" rx="8"/><text class="terminal-452739784-title" fill="#c5c8c6" text-anchor="middle" x="862" y="27">_Demo</text>
            <g transform="translate(26,22)">
            <circle cx="0" cy="0" r="7" fill="#ff5f57"/>
            <circle cx="22" cy="0" r="7" fill="#febc2e"/>
            <circle cx="44" cy="0" r="7" fill="#28c840"/>
            </g>
        
    <g transform="translate(9, 41)" clip-path="url(#terminal-452739784-clip-terminal)">
    <rect fill="#1f6feb" x="0" y="1.5" width="1708" height="24.65" shape-rendering="crispEdges"/><rect fill="#1f6feb" x="0" y="25.9" width="488" height="24.65" shape-rendering="crispEdges"/><rect fill="#1f6feb" x="488" y="25.9" width="719.8" height="24.65" shape-rendering="crispEdges"/><rect fill="#1f6feb" x="1207.8" y="25.9" width="500.2" height="24.65" shape-rendering="crispEdges"/><rect fill="#1f6feb" x="0" y="50.3" width="1708" height="24.65" shape-rendering="crispEdges"/><rect fill="#171b21" x="0" y="74.7" width="256.2" height="24.65" shape-rendering="crispEdges"/><rect fill="#171b21" x="256.2" y="74.7" width="12.2" height="24.65" shape-rendering="crispEdges"/><rect fill="#171b21" x="268.4" y="74.7" width="73.2" height="24.65" shape-rendering="crispEdges"/><rect fill="#171b21" x="341.6" y="74.7" width="12.2" height="24.65" shape-rendering="crispEdges"/><rect fill="#171b21" x="353.8" y="74.7" width="353.8" height="24.65" shape-rendering="crispEdges"/><rect fill="#171b21" x="707.6" y="74.7" width="976" height="24.65" shape-rendering="crispEdges"/><rect fill="#000000" x="1683.6" y="74.7" width="24.4" height="24.65" shape-rendering="crispEdges"/><rect fill="#171b21" x="0" y="99.1" width="341.6" height="24.65" shape-rendering="crispEdges"/><rect fill="#171b21" x="341.6" y="99.1" width="1342" height="24.65" shape-rendering="crispEdges"/><rect fill="#000000" x="1683.6" y="99.1" width="24.4" height="24.65" shape-rendering="crispEdges"/><rect fill="#171b21" x="0" y="123.5" width="12.2" height="24.65" shape-rendering="crispEdges"/><rect fill="#171b21" x="12.2" y="123.5" width="12.2" height="24.65" shape-rendering="crispEdges"/><rect fill="#171b21" x="24.4" y="123.5" width="73.2" height="24.65" shape-rendering="crispEdges"/><rect fill="#171b21" x="97.6" y="123.5" width="12.2" height="24.65" shape-rendering="crispEdges"/><rect fill="#171b21" x="109.8" y="123.5" width="12.2" height="24.65" shape-rendering="crispEdges"/><rect fill="#171b21" x="122" y="123.5" width="12.2" height="24.65" shape-rendering="crispEdges"/><rect fill="#171b21" x="134.2" y="123.5" width="183" height="24.65" shape-rendering="crispEdges"/><rect fill="#171b21" x="317.2" y="123.5" width="12.2" height="24.65" shape-rendering="crispEdges"/><rect fill="#171b21" x="329.4" y="123.5" width="12.2" height="24.65" shape-rendering="crispEdges"/><rect fill="#171b21" x="341.6" y="123.5" width="1342" height="24.65" shape-rendering="crispEdges"/><rect fill="#000000" x="1683.6" y="123.5" width="24.4" height="24.65" shape-rendering="crispEdges"/><rect fill="#171b21" x="0" y="147.9" width="341.6" height="24.65" shape-rendering="crispEdges"/><rect fill="#171b21" x="341.6" y="147.9" width="1342" height="24.65" shape-rendering="crispEdges"/><rect fill="#000000" x="1683.6" y="147.9" width="24.4" height="24.65" shape-rendering="crispEdges"/><rect fill="#171b21" x="0" y="172.3" width="12.2" height="24.65" shape-rendering="crispEdges"/><rect fill="#171b21" x="12.2" y="172.3" width="12.2" height="24.65" shape-rendering="crispEdges"/><rect fill="#171b21" x="24.4" y="172.3" width="73.2" height="24.65" shape-rendering="crispEdges"/><rect fill="#171b21" x="97.6" y="172.3" width="12.2" height="24.65" shape-rendering="crispEdges"/><rect fill="#171b21" x="109.8" y="172.3" width="12.2" height="24.65" shape-rendering="crispEdges"/><rect fill="#171b21" x="122" y="172.3" width="12.2" height="24.65" shape-rendering="crispEdges"/><rect fill="#171b21" x="134.2" y="172.3" width="183" height="24.65" shape-rendering="crispEdges"/><rect fill="#171b21" x="317.2" y="172.3" width="12.2" height="24.65" shape-rendering="crispEdges"/><rect fill="#171b21" x="329.4" y="172.3" width="12.2" height="24.65" shape-rendering="crispEdges"/><rect fill="#171b21" x="341.6" y="172.3" width="1342" height="24.65" shape-rendering="crispEdges"/><rect fill="#000000" x="1683.6" y="172.3" width="24.4" height="24.65" shape-rendering="crispEdges"/><rect fill="#171b21" x="0" y="196.7" width="12.2" height="24.65" shape-rendering="crispEdges"/><rect fill="#171b21" x="12.2" y="196.7" width="12.2" height="24.65" shape-rendering="crispEdges"/><rect fill="#171b21" x="24.4" y="196.7" width="73.2" height="24.65" shape-rendering="crispEdges"/><rect fill="#171b21" x="97.6" y="196.7" width="12.2" height="24.65" shape-rendering="crispEdges"/><rect fill="#171b21" x="109.8" y="196.7" width="12.2" height="24.65" shape-rendering="crispEdges"/><rect fill="#171b21" x="122" y="196.7" width="12.2" height="24.65" shape-rendering="crispEdges"/><rect fill="#171b21" x="134.2" y="196.7" width="183" height="24.65" shape-rendering="crispEdges"/><rect fill="#171b21" x="317.2" y="196.7" width="12.2" height="24.65" shape-rendering="crispEdges"/><rect fill="#171b21" x="329.4" y="196.7" width="12.2" height="24.65" shape-rendering="crispEdges"/><rect fill="#171b21" x="341.6" y="196.7" width="1342" height="24.65" shape-rendering="crispEdges"/><rect fill="#000000" x="1683.6" y="196.7" width="24.4" height="24.65" shape-rendering="crispEdges"/><rect fill="#171b21" x="0" y="221.1" width="341.6" height="24.65" shape-rendering="crispEdges"/><rect fill="#171b21" x="341.6" y="221.1" width="1342" height="24.65" shape-rendering="crispEdges"/><rect fill="#000000" x="1683.6" y="221.1" width="24.4" height="24.65" shape-rendering="crispEdges"/><rect fill="#171b21" x="0" y="245.5" width="1683.6" height="24.65" shape-rendering="crispEdges"/><rect fill="#000000" x="1683.6" y="245.5" width="24.4" height="24.65" shape-rendering="crispEdges"/><rect fill="#171b21" x="0" y="269.9" width="451.4" height="24.65" shape-rendering="crispEdges"/><rect fill="#171b21" x="451.4" y="269.9" width="12.2" height="24.65" shape-rendering="crispEdges"/><rect fill="#171b21" x="463.6" y="269.9" width="170.8" height="24.65" shape-rendering="crispEdges"/><rect fill="#171b21" x="634.4" y="269.9" width="12.2" height="24.65" shape-rendering="crispEdges"/><rect fill="#171b21" x="646.6" y="269.9" width="1037" height="24.65" shape-rendering="crispEdges"/><rect fill="#000000" x="1683.6" y="269.9" width="24.4" height="24.65" shape-rendering="crispEdges"/><rect fill="#171b21" x="0" y="294.3" width="24.4" height="24.65" shape-rendering="crispEdges"/><rect fill="#171b21" x="24.4" y="294.3" width="414.8" height="24.65" shape-rendering="crispEdges"/><rect fill="#171b21" x="439.2" y="294.3" width="12.2" height="24.65" shape-rendering="crispEdges"/><rect fill="#171b21" x="451.4" y="294.3" width="73.2" height="24.65" shape-rendering="crispEdges"/><rect fill="#171b21" x="524.6" y="294.3" width="12.2" height="24.65" shape-rendering="crispEdges"/><rect fill="#171b21" x="536.8" y="294.3" width="414.8" height="24.65" shape-rendering="crispEdges"/><rect fill="#171b21" x="951.6" y="294.3" width="24.4" height="24.65" shape-rendering="crispEdges"/><rect fill="#171b21" x="976" y="294.3" width="707.6" height="24.65" shape-rendering="crispEdges"/><rect fill="#000000" x="1683.6" y="294.3" width="24.4" height="24.65" shape-rendering="crispEdges"/><rect fill="#171b21" x="0" y="318.7" width="12.2" height="24.65" shape-rendering="crispEdges"/><rect fill="#171b21" x="12.2" y="318.7" width="12.2" height="24.65" shape-rendering="crispEdges"/><rect fill="#171b21" x="24.4" y="318.7" width="866.2" height="24.65" shape-rendering="crispEdges"/><rect fill="#171b21" x="890.6" y="318.7" width="61" height="24.65" shape-rendering="crispEdges"/><rect fill="#171b21" x="951.6" y="318.7" width="12.2" height="24.65" shape-rendering="crispEdges"/><rect fill="#171b21" x="963.8" y="318.7" width="12.2" height="24.65" shape-rendering="crispEdges"/><rect fill="#171b21" x="976" y="318.7" width="707.6" height="24.65" shape-rendering="crispEdges"/><rect fill="#000000" x="1683.6" y="318.7" width="24.4" height="24.65" shape-rendering="crispEdges"/><rect fill="#171b21" x="0" y="343.1" width="12.2" height="24.65" shape-rendering="crispEdges"/><rect fill="#171b21" x="12.2" y="343.1" width="12.2" height="24.65" shape-rendering="crispEdges"/><rect fill="#171b21" x="24.4" y="343.1" width="73.2" height="24.65" shape-rendering="crispEdges"/><rect fill="#171b21" x="97.6" y="343.1" width="854" height="24.65" shape-rendering="crispEdges"/><rect fill="#171b21" x="951.6" y="343.1" width="12.2" height="24.65" shape-rendering="crispEdges"/><rect fill="#171b21" x="963.8" y="343.1" width="12.2" height="24.65" shape-rendering="crispEdges"/><rect fill="#171b21" x="976" y="343.1" width="707.6" height="24.65" shape-rendering="crispEdges"/><rect fill="#000000" x="1683.6" y="343.1" width="24.4" height="24.65" shape-rendering="crispEdges"/><rect fill="#171b21" x="0" y="367.5" width="976" height="24.65" shape-rendering="crispEdges"/><rect fill="#171b21" x="976" y="367.5" width="707.6" height="24.65" shape-rendering="crispEdges"/><rect fill="#000000" x="1683.6" y="367.5" width="24.4" height="24.65" shape-rendering="crispEdges"/><rect fill="#171b21" x="0" y="391.9" width="24.4" height="24.65" shape-rendering="crispEdges"/><rect fill="#171b21" x="24.4" y="391.9" width="414.8" height="24.65" shape-rendering="crispEdges"/><rect fill="#171b21" x="439.2" y="391.9" width="12.2" height="24.65" shape-rendering="crispEdges"/><rect fill="#171b21" x="451.4" y="391.9" width="61" height="24.65" shape-rendering="crispEdges"/><rect fill="#171b21" x="512.4" y="391.9" width="12.2" height="24.65" shape-rendering="crispEdges"/><rect fill="#171b21" x="524.6" y="391.9" width="427" height="24.65" shape-rendering="crispEdges"/><rect fill="#171b21" x="951.6" y="391.9" width="24.4" height="24.65" shape-rendering="crispEdges"/><rect fill="#171b21" x="976" y="391.9" width="707.6" height="24.65" shape-rendering="crispEdges"/><rect fill="#000000" x="1683.6" y="391.9" width="24.4" height="24.65" shape-rendering="crispEdges"/><rect fill="#171b21" x="0" y="416.3" width="12.2" height="24.65" shape-rendering="crispEdges"/><rect fill="#171b21" x="12.2" y="416.3" width="12.2" height="24.65" shape-rendering="crispEdges"/><rect fill="#171b21" x="24.4" y="416.3" width="866.2" height="24.65" shape-rendering="crispEdges"/><rect fill="#171b21" x="890.6" y="416.3" width="61" height="24.65" shape-rendering="crispEdges"/><rect fill="#171b21" x="951.6" y="416.3" width="12.2" height="24.65" shape-rendering="crispEdges"/><rect fill="#171b21" x="963.8" y="416.3" width="12.2" height="24.65" shape-rendering="crispEdges"/><rect fill="#171b21" x="976" y="416.3" width="707.6" height="24.65" shape-rendering="crispEdges"/><rect fill="#000000" x="1683.6" y="416.3" width="24.4" height="24.65" shape-rendering="crispEdges"/><rect fill="#171b21" x="0" y="440.7" width="12.2" height="24.65" shape-rendering="crispEdges"/><rect fill="#171b21" x="12.2" y="440.7" width="12.2" height="24.65" shape-rendering="crispEdges"/><rect fill="#171b21" x="24.4" y="440.7" width="73.2" height="24.65" shape-rendering="crispEdges"/><rect fill="#171b21" x="97.6" y="440.7" width="854" height="24.65" shape-rendering="crispEdges"/><rect fill="#171b21" x="951.6" y="440.7" width="12.2" height="24.65" shape-rendering="crispEdges"/><rect fill="#171b21" x="963.8" y="440.7" width="12.2" height="24.65" shape-rendering="crispEdges"/><rect fill="#171b21" x="976" y="440.7" width="707.6" height="24.65" shape-rendering="crispEdges"/><rect fill="#000000" x="1683.6" y="440.7" width="24.4" height="24.65" shape-rendering="crispEdges"/><rect fill="#171b21" x="0" y="465.1" width="976" height="24.65" shape-rendering="crispEdges"/><rect fill="#171b21" x="976" y="465.1" width="707.6" height="24.65" shape-rendering="crispEdges"/><rect fill="#000000" x="1683.6" y="465.1" width="24.4" height="24.65" shape-rendering="crispEdges"/><rect fill="#171b21" x="0" y="489.5" width="1683.6" height="24.65" shape-rendering="crispEdges"/><rect fill="#000000" x="1683.6" y="489.5" width="24.4" height="24.65" shape-rendering="crispEdges"/><rect fill="#171b21" x="0" y="513.9" width="1683.6" height="24.65" shape-rendering="crispEdges"/><rect fill="#000000" x="1683.6" y="513.9" width="24.4" height="24.65" shape-rendering="crispEdges"/><rect fill="#171b21" x="0" y="538.3" width="1683.6" height="24.65" shape-rendering="crispEdges"/><rect fill="#000000" x="1683.6" y="538.3" width="24.4" height="24.65" shape-rendering="crispEdges"/><rect fill="#171b21" x="0" y="562.7" width="1683.6" height="24.65" shape-rendering="crispEdges"/><rect fill="#000000" x="1683.6" y="562.7" width="24.4" height="24.65" shape-rendering="crispEdges"/><rect fill="#171b21" x="0" y="587.1" width="1683.6" height="24.65" shape-rendering="crispEdges"/><rect fill="#000000" x="1683.6" y="587.1" width="24.4" height="24.65" shape-rendering="crispEdges"/><rect fill="#171b21" x="0" y="611.5" width="1683.6" height="24.65" shape-rendering="crispEdges"/><rect fill="#000000" x="1683.6" y="611.5" width="24.4" height="24.65" shape-rendering="crispEdges"/><rect fill="#171b21" x="0" y="635.9" width="1683.6" height="24.65" shape-rendering="crispEdges"/><rect fill="#000000" x="1683.6" y="635.9" width="24.4" height="24.65" shape-rendering="crispEdges"/><rect fill="#171b21" x="0" y="660.3" width="1683.6" height="24.65" shape-rendering="crispEdges"/><rect fill="#000000" x="1683.6" y="660.3" width="24.4" height="24.65" shape-rendering="crispEdges"/><rect fill="#171b21" x="0" y="684.7" width="1683.6" height="24.65" shape-rendering="crispEdges"/><rect fill="#000000" x="1683.6" y="684.7" width="24.4" height="24.65" shape-rendering="crispEdges"/><rect fill="#171b21" x="0" y="709.1" width="1683.6" height="24.65" shape-rendering="crispEdges"/><rect fill="#000000" x="1683.6" y="709.1" width="24.4" height="24.65" shape-rendering="crispEdges"/><rect fill="#171b21" x="0" y="733.5" width="1683.6" height="24.65" shape-rendering="crispEdges"/><rect fill="#000000" x="1683.6" y="733.5" width="24.4" height="24.65" shape-rendering="crispEdges"/><rect fill="#171b21" x="0" y="757.9" width="1683.6" height="24.65" shape-rendering="crispEdges"/><rect fill="#000000" x="1683.6" y="757.9" width="24.4" height="24.65" shape-rendering="crispEdges"/><rect fill="#171b21" x="0" y="782.3" width="1683.6" height="24.65" shape-rendering="crispEdges"/><rect fill="#000000" x="1683.6" y="782.3" width="24.4" height="24.65" shape-rendering="crispEdges"/><rect fill="#171b21" x="0" y="806.7" width="1683.6" height="24.65" shape-rendering="crispEdges"/><rect fill="#000000" x="1683.6" y="806.7" width="24.4" height="24.65" shape-rendering="crispEdges"/><rect fill="#171b21" x="0" y="831.1" width="1683.6" height="24.65" shape-rendering="crispEdges"/><rect fill="#000000" x="1683.6" y="831.1" width="24.4" height="24.65" shape-rendering="crispEdges"/><rect fill="#171b21" x="0" y="855.5" width="1683.6" height="24.65" shape-rendering="crispEdges"/><rect fill="#000000" x="1683.6" y="855.5" width="24.4" height="24.65" shape-rendering="crispEdges"/><rect fill="#171b21" x="0" y="879.9" width="1683.6" height="24.65" shape-rendering="crispEdges"/><rect fill="#000000" x="1683.6" y="879.9" width="24.4" height="24.65" shape-rendering="crispEdges"/><rect fill="#171b21" x="0" y="904.3" width="1683.6" height="24.65" shape-rendering="crispEdges"/><rect fill="#000000" x="1683.6" y="904.3" width="24.4" height="24.65" shape-rendering="crispEdges"/><rect fill="#171b21" x="0" y="928.7" width="1683.6" height="24.65" shape-rendering="crispEdges"/><rect fill="#000000" x="1683.6" y="928.7" width="24.4" height="24.65" shape-rendering="crispEdges"/><rect fill="#171b21" x="0" y="953.1" width="1683.6" height="24.65" shape-rendering="crispEdges"/><rect fill="#000000" x="1683.6" y="953.1" width="24.4" height="24.65" shape-rendering="crispEdges"/><rect fill="#171b21" x="0" y="977.5" width="1683.6" height="24.65" shape-rendering="crispEdges"/><rect fill="#000000" x="1683.6" y="977.5" width="24.4" height="24.65" shape-rendering="crispEdges"/><rect fill="#171b21" x="0" y="1001.9" width="1683.6" height="24.65" shape-rendering="crispEdges"/><rect fill="#000000" x="1683.6" y="1001.9" width="24.4" height="24.65" shape-rendering="crispEdges"/>
    <g class="terminal-452739784-matrix">
    <text class="terminal-452739784-r2" x="1708" y="20" textLength="12.2" clip-path="url(#terminal-452739784-line-0)">
</text><text class="terminal-452739784-r1" x="488" y="44.4" textLength="719.8" clip-path="url(#terminal-452739784-line-1)">&#160;&#160;LabRat&#160;&#160;·&#160;&#160;M29&#160;·&#160;Context&#160;Engine&#160;—&#160;Personal&#160;Domain&#160;Builder</text><text class="terminal-452739784-r2" x="1708" y="44.4" textLength="12.2" clip-path="url(#terminal-452739784-line-1)">
</text><text class="terminal-452739784-r2" x="1708" y="68.8" textLength="12.2" clip-path="url(#terminal-452739784-line-2)">
</text><text class="terminal-452739784-r3" x="0" y="93.2" textLength="256.2" clip-path="url(#terminal-452739784-line-3)">score_table_relevance</text><text class="terminal-452739784-r4" x="256.2" y="93.2" textLength="12.2" clip-path="url(#terminal-452739784-line-3)">(</text><text class="terminal-452739784-r4" x="268.4" y="93.2" textLength="73.2" clip-path="url(#terminal-452739784-line-3)">events</text><text class="terminal-452739784-r4" x="341.6" y="93.2" textLength="12.2" clip-path="url(#terminal-452739784-line-3)">)</text><text class="terminal-452739784-r4" x="353.8" y="93.2" textLength="353.8" clip-path="url(#terminal-452739784-line-3)">&#160;—&#160;frequency&#160;×&#160;recency&#160;weight</text><text class="terminal-452739784-r2" x="1708" y="93.2" textLength="12.2" clip-path="url(#terminal-452739784-line-3)">
</text><text class="terminal-452739784-r6" x="0" y="117.6" textLength="341.6" clip-path="url(#terminal-452739784-line-4)">┏━━━━━━━━┳━━━━━━━━━━━━━━━━━┓</text><text class="terminal-452739784-r2" x="1708" y="117.6" textLength="12.2" clip-path="url(#terminal-452739784-line-4)">
</text><text class="terminal-452739784-r6" x="0" y="142" textLength="12.2" clip-path="url(#terminal-452739784-line-5)">┃</text><text class="terminal-452739784-r3" x="24.4" y="142" textLength="73.2" clip-path="url(#terminal-452739784-line-5)">table&#160;</text><text class="terminal-452739784-r6" x="109.8" y="142" textLength="12.2" clip-path="url(#terminal-452739784-line-5)">┃</text><text class="terminal-452739784-r3" x="134.2" y="142" textLength="183" clip-path="url(#terminal-452739784-line-5)">relevance&#160;score</text><text class="terminal-452739784-r6" x="329.4" y="142" textLength="12.2" clip-path="url(#terminal-452739784-line-5)">┃</text><text class="terminal-452739784-r2" x="1708" y="142" textLength="12.2" clip-path="url(#terminal-452739784-line-5)">
</text><text class="terminal-452739784-r6" x="0" y="166.4" textLength="341.6" clip-path="url(#terminal-452739784-line-6)">┡━━━━━━━━╇━━━━━━━━━━━━━━━━━┩</text><text class="terminal-452739784-r2" x="1708" y="166.4" textLength="12.2" clip-path="url(#terminal-452739784-line-6)">
</text><text class="terminal-452739784-r6" x="0" y="190.8" textLength="12.2" clip-path="url(#terminal-452739784-line-7)">│</text><text class="terminal-452739784-r5" x="24.4" y="190.8" textLength="73.2" clip-path="url(#terminal-452739784-line-7)">users&#160;</text><text class="terminal-452739784-r6" x="109.8" y="190.8" textLength="12.2" clip-path="url(#terminal-452739784-line-7)">│</text><text class="terminal-452739784-r5" x="134.2" y="190.8" textLength="183" clip-path="url(#terminal-452739784-line-7)">1.0000&#160;&#160;&#160;&#160;&#160;&#160;&#160;&#160;&#160;</text><text class="terminal-452739784-r6" x="329.4" y="190.8" textLength="12.2" clip-path="url(#terminal-452739784-line-7)">│</text><text class="terminal-452739784-r2" x="1708" y="190.8" textLength="12.2" clip-path="url(#terminal-452739784-line-7)">
</text><text class="terminal-452739784-r6" x="0" y="215.2" textLength="12.2" clip-path="url(#terminal-452739784-line-8)">│</text><text class="terminal-452739784-r5" x="24.4" y="215.2" textLength="73.2" clip-path="url(#terminal-452739784-line-8)">orders</text><text class="terminal-452739784-r6" x="109.8" y="215.2" textLength="12.2" clip-path="url(#terminal-452739784-line-8)">│</text><text class="terminal-452739784-r5" x="134.2" y="215.2" textLength="183" clip-path="url(#terminal-452739784-line-8)">1.0000&#160;&#160;&#160;&#160;&#160;&#160;&#160;&#160;&#160;</text><text class="terminal-452739784-r6" x="329.4" y="215.2" textLength="12.2" clip-path="url(#terminal-452739784-line-8)">│</text><text class="terminal-452739784-r2" x="1708" y="215.2" textLength="12.2" clip-path="url(#terminal-452739784-line-8)">
</text><text class="terminal-452739784-r6" x="0" y="239.6" textLength="341.6" clip-path="url(#terminal-452739784-line-9)">└────────┴─────────────────┘</text><text class="terminal-452739784-r2" x="1708" y="239.6" textLength="12.2" clip-path="url(#terminal-452739784-line-9)">
</text><text class="terminal-452739784-r2" x="1708" y="264" textLength="12.2" clip-path="url(#terminal-452739784-line-10)">
</text><text class="terminal-452739784-r3" x="0" y="288.4" textLength="451.4" clip-path="url(#terminal-452739784-line-11)">ContextAnalyzer.generate_descriptions</text><text class="terminal-452739784-r4" x="451.4" y="288.4" textLength="12.2" clip-path="url(#terminal-452739784-line-11)">(</text><text class="terminal-452739784-r4" x="463.6" y="288.4" textLength="170.8" clip-path="url(#terminal-452739784-line-11)">tables,&#160;events</text><text class="terminal-452739784-r4" x="634.4" y="288.4" textLength="12.2" clip-path="url(#terminal-452739784-line-11)">)</text><text class="terminal-452739784-r2" x="1708" y="288.4" textLength="12.2" clip-path="url(#terminal-452739784-line-11)">
</text><text class="terminal-452739784-r6" x="0" y="312.8" textLength="24.4" clip-path="url(#terminal-452739784-line-12)">╭─</text><text class="terminal-452739784-r6" x="24.4" y="312.8" textLength="414.8" clip-path="url(#terminal-452739784-line-12)">──────────────────────────────────</text><text class="terminal-452739784-r7" x="451.4" y="312.8" textLength="73.2" clip-path="url(#terminal-452739784-line-12)">orders</text><text class="terminal-452739784-r6" x="536.8" y="312.8" textLength="414.8" clip-path="url(#terminal-452739784-line-12)">──────────────────────────────────</text><text class="terminal-452739784-r6" x="951.6" y="312.8" textLength="24.4" clip-path="url(#terminal-452739784-line-12)">─╮</text><text class="terminal-452739784-r2" x="1708" y="312.8" textLength="12.2" clip-path="url(#terminal-452739784-line-12)">
</text><text class="terminal-452739784-r6" x="0" y="337.2" textLength="12.2" clip-path="url(#terminal-452739784-line-13)">│</text><text class="terminal-452739784-r5" x="24.4" y="337.2" textLength="866.2" clip-path="url(#terminal-452739784-line-13)">The&#160;user&#160;primarily&#160;analyses&#160;revenue&#160;and&#160;user&#160;behaviour&#160;from&#160;the&#160;orders&#160;</text><text class="terminal-452739784-r6" x="963.8" y="337.2" textLength="12.2" clip-path="url(#terminal-452739784-line-13)">│</text><text class="terminal-452739784-r2" x="1708" y="337.2" textLength="12.2" clip-path="url(#terminal-452739784-line-13)">
</text><text class="terminal-452739784-r6" x="0" y="361.6" textLength="12.2" clip-path="url(#terminal-452739784-line-14)">│</text><text class="terminal-452739784-r5" x="24.4" y="361.6" textLength="73.2" clip-path="url(#terminal-452739784-line-14)">table.</text><text class="terminal-452739784-r6" x="963.8" y="361.6" textLength="12.2" clip-path="url(#terminal-452739784-line-14)">│</text><text class="terminal-452739784-r2" x="1708" y="361.6" textLength="12.2" clip-path="url(#terminal-452739784-line-14)">
</text><text class="terminal-452739784-r6" x="0" y="386" textLength="976" clip-path="url(#terminal-452739784-line-15)">╰──────────────────────────────────────────────────────────────────────────────╯</text><text class="terminal-452739784-r2" x="1708" y="386" textLength="12.2" clip-path="url(#terminal-452739784-line-15)">
</text><text class="terminal-452739784-r6" x="0" y="410.4" textLength="24.4" clip-path="url(#terminal-452739784-line-16)">╭─</text><text class="terminal-452739784-r6" x="24.4" y="410.4" textLength="414.8" clip-path="url(#terminal-452739784-line-16)">──────────────────────────────────</text><text class="terminal-452739784-r7" x="451.4" y="410.4" textLength="61" clip-path="url(#terminal-452739784-line-16)">users</text><text class="terminal-452739784-r6" x="524.6" y="410.4" textLength="427" clip-path="url(#terminal-452739784-line-16)">───────────────────────────────────</text><text class="terminal-452739784-r6" x="951.6" y="410.4" textLength="24.4" clip-path="url(#terminal-452739784-line-16)">─╮</text><text class="terminal-452739784-r2" x="1708" y="410.4" textLength="12.2" clip-path="url(#terminal-452739784-line-16)">
</text><text class="terminal-452739784-r6" x="0" y="434.8" textLength="12.2" clip-path="url(#terminal-452739784-line-17)">│</text><text class="terminal-452739784-r5" x="24.4" y="434.8" textLength="866.2" clip-path="url(#terminal-452739784-line-17)">The&#160;user&#160;primarily&#160;analyses&#160;revenue&#160;and&#160;user&#160;behaviour&#160;from&#160;the&#160;orders&#160;</text><text class="terminal-452739784-r6" x="963.8" y="434.8" textLength="12.2" clip-path="url(#terminal-452739784-line-17)">│</text><text class="terminal-452739784-r2" x="1708" y="434.8" textLength="12.2" clip-path="url(#terminal-452739784-line-17)">
</text><text class="terminal-452739784-r6" x="0" y="459.2" textLength="12.2" clip-path="url(#terminal-452739784-line-18)">│</text><text class="terminal-452739784-r5" x="24.4" y="459.2" textLength="73.2" clip-path="url(#terminal-452739784-line-18)">table.</text><text class="terminal-452739784-r6" x="963.8" y="459.2" textLength="12.2" clip-path="url(#terminal-452739784-line-18)">│</text><text class="terminal-452739784-r2" x="1708" y="459.2" textLength="12.2" clip-path="url(#terminal-452739784-line-18)">
</text><text class="terminal-452739784-r6" x="0" y="483.6" textLength="976" clip-path="url(#terminal-452739784-line-19)">╰──────────────────────────────────────────────────────────────────────────────╯</text><text class="terminal-452739784-r2" x="1708" y="483.6" textLength="12.2" clip-path="url(#terminal-452739784-line-19)">
</text><text class="terminal-452739784-r2" x="1708" y="508" textLength="12.2" clip-path="url(#terminal-452739784-line-20)">
</text><text class="terminal-452739784-r2" x="1708" y="532.4" textLength="12.2" clip-path="url(#terminal-452739784-line-21)">
</text><text class="terminal-452739784-r2" x="1708" y="556.8" textLength="12.2" clip-path="url(#terminal-452739784-line-22)">
</text><text class="terminal-452739784-r2" x="1708" y="581.2" textLength="12.2" clip-path="url(#terminal-452739784-line-23)">
</text><text class="terminal-452739784-r2" x="1708" y="605.6" textLength="12.2" clip-path="url(#terminal-452739784-line-24)">
</text><text class="terminal-452739784-r2" x="1708" y="630" textLength="12.2" clip-path="url(#terminal-452739784-line-25)">
</text><text class="terminal-452739784-r2" x="1708" y="654.4" textLength="12.2" clip-path="url(#terminal-452739784-line-26)">
</text><text class="terminal-452739784-r2" x="1708" y="678.8" textLength="12.2" clip-path="url(#terminal-452739784-line-27)">
</text><text class="terminal-452739784-r2" x="1708" y="703.2" textLength="12.2" clip-path="url(#terminal-452739784-line-28)">
</text><text class="terminal-452739784-r2" x="1708" y="727.6" textLength="12.2" clip-path="url(#terminal-452739784-line-29)">
</text><text class="terminal-452739784-r2" x="1708" y="752" textLength="12.2" clip-path="url(#terminal-452739784-line-30)">
</text><text class="terminal-452739784-r2" x="1708" y="776.4" textLength="12.2" clip-path="url(#terminal-452739784-line-31)">
</text><text class="terminal-452739784-r2" x="1708" y="800.8" textLength="12.2" clip-path="url(#terminal-452739784-line-32)">
</text><text class="terminal-452739784-r2" x="1708" y="825.2" textLength="12.2" clip-path="url(#terminal-452739784-line-33)">
</text><text class="terminal-452739784-r2" x="1708" y="849.6" textLength="12.2" clip-path="url(#terminal-452739784-line-34)">
</text><text class="terminal-452739784-r2" x="1708" y="874" textLength="12.2" clip-path="url(#terminal-452739784-line-35)">
</text><text class="terminal-452739784-r2" x="1708" y="898.4" textLength="12.2" clip-path="url(#terminal-452739784-line-36)">
</text><text class="terminal-452739784-r2" x="1708" y="922.8" textLength="12.2" clip-path="url(#terminal-452739784-line-37)">
</text><text class="terminal-452739784-r2" x="1708" y="947.2" textLength="12.2" clip-path="url(#terminal-452739784-line-38)">
</text><text class="terminal-452739784-r2" x="1708" y="971.6" textLength="12.2" clip-path="url(#terminal-452739784-line-39)">
</text><text class="terminal-452739784-r2" x="1708" y="996" textLength="12.2" clip-path="url(#terminal-452739784-line-40)">
</text>
    </g>
    </g>
</svg>
